<svg width="20" height="20" viewBox="0 0 20 20" fill="none" xmlns="http://www.w3.org/2000/svg">
<g clip-path="url(#clip0_7539_77)">
<path d="M10.0059 15.7978C6.80717 15.7978 4.21387 13.1931 4.21387 10.0057C4.21387 6.81836 6.80717 4.20221 10.0059 4.20221C13.2047 4.20221 15.798 6.80693 15.798 9.99429C15.798 13.1816 13.1933 15.7864 10.0059 15.7864V15.7978ZM10.0059 4.88766C7.18416 4.88766 4.8879 7.18393 4.8879 10.0057C4.8879 12.8275 7.18416 15.1238 10.0059 15.1238C12.8277 15.1238 15.124 12.8275 15.124 10.0057C15.124 7.18393 12.8277 4.88766 10.0059 4.88766Z" fill="#AA69CB"/>
<path d="M10.0057 17.5C5.87015 17.5 2.5 14.1299 2.5 9.99429C2.5 5.85872 5.87015 2.5 10.0057 2.5C14.1413 2.5 17.5114 5.87015 17.5114 10.0057C17.5114 14.1413 14.1413 17.5114 10.0057 17.5114V17.5ZM10.0057 3.18545C6.24714 3.18545 3.18545 6.24714 3.18545 10.0057C3.18545 13.7643 6.24714 16.826 10.0057 16.826C13.7643 16.826 16.826 13.7643 16.826 10.0057C16.826 6.24714 13.7643 3.18545 10.0057 3.18545Z" fill="#AA69CB"/>
<path d="M10.6798 10.3484V9.66297C10.8626 9.66297 11.0225 9.51446 11.0225 9.32025V8.97752C11.0225 8.79473 10.874 8.63479 10.6798 8.63479H9.32031V7.94934H10.6798C11.2396 7.94934 11.708 8.40631 11.708 8.97752V9.32025C11.708 9.88003 11.251 10.3484 10.6798 10.3484Z" fill="#AA69CB"/>
<path d="M10.6797 12.0507H8.97754V9.66302H10.6797C11.2395 9.66302 11.7079 10.12 11.7079 10.6912V11.0339C11.7079 11.5937 11.251 12.0621 10.6797 12.0621V12.0507ZM9.65157 11.3652H10.6797C10.8625 11.3652 11.0225 11.2167 11.0225 11.0225V10.6798C11.0225 10.497 10.874 10.3371 10.6797 10.3371H9.65157V11.3652Z" fill="#AA69CB"/>
<path d="M9.32017 11.3652H8.29199V12.0506H9.32017V11.3652Z" fill="#AA69CB"/>
<path d="M9.32017 7.96075H8.29199V8.64621H9.32017V7.96075Z" fill="#AA69CB"/>
<path d="M9.66299 7.27533H8.97754V10.0057H9.66299V7.27533Z" fill="#AA69CB"/>
<path d="M9.66299 11.7079H8.97754V12.7361H9.66299V11.7079Z" fill="#AA69CB"/>
<path d="M10.6913 11.7079H10.0059V12.7361H10.6913V11.7079Z" fill="#AA69CB"/>
<path d="M10.6913 7.27533H10.0059V8.30351H10.6913V7.27533Z" fill="#AA69CB"/>
</g>
<defs>
<clipPath id="clip0_7539_77">
<rect width="15" height="15" fill="white" transform="translate(2.5 2.5)"/>
</clipPath>
</defs>
</svg>
