<svg width="30" height="30" viewBox="0 0 30 30" fill="none" xmlns="http://www.w3.org/2000/svg">
<path fill-rule="evenodd" clip-rule="evenodd" d="M12.096 26.6407C18.526 28.2437 25.0374 24.3312 26.6409 17.9027C28.2436 11.4738 24.3308 4.96194 17.9016 3.35911C11.4738 1.75629 4.96184 5.66928 3.35951 12.0984C1.75568 18.5266 5.66868 25.0379 12.096 26.6407ZM17.6496 10.3039C19.3121 10.8766 20.5281 11.7348 20.2893 13.3318C20.1165 14.5004 19.4681 15.0664 18.608 15.2648C19.7893 15.8799 20.3905 16.8231 19.8176 18.4581C19.1073 20.4886 17.4188 20.6599 15.1733 20.2352L14.6283 22.4189L13.3117 22.0907L13.8493 19.9364C13.508 19.8516 13.1593 19.7614 12.7997 19.6641L12.2602 21.8286L10.945 21.5004L11.4895 19.3126C11.3763 19.2835 11.2624 19.2538 11.1477 19.2239C10.951 19.1727 10.752 19.1208 10.5508 19.0704L8.8375 18.6433L9.49083 17.1364C9.49083 17.1364 10.4615 17.3943 10.4483 17.3753C10.821 17.4676 10.9865 17.2244 11.0518 17.0624L11.9128 13.6108C11.9515 13.6201 11.9894 13.6296 12.0256 13.6387C12.0344 13.6409 12.0432 13.6431 12.0518 13.6453C11.9992 13.6239 11.9517 13.6108 11.915 13.6013L12.5292 11.1371C12.5452 10.8574 12.449 10.5046 11.9157 10.3714C11.9363 10.3574 10.9595 10.1336 10.9595 10.1336L11.3098 8.72745L13.1255 9.18079L13.1242 9.18745C13.3973 9.25545 13.6785 9.31979 13.965 9.38512L14.5048 7.22246L15.8205 7.55062L15.292 9.67062C15.6455 9.75112 16.0006 9.83245 16.3471 9.91878L16.8723 7.81279L18.1888 8.14096L17.6496 10.3039ZM13.4848 18.1462C14.5595 18.4302 16.9074 19.0505 17.2811 17.5503C17.6635 16.016 15.3849 15.5051 14.274 15.2561C14.1501 15.2283 14.0407 15.2038 13.9512 15.1814L13.2282 18.0796C13.3018 18.0979 13.3882 18.1207 13.4848 18.1462ZM14.4979 13.911C15.3937 14.1501 17.3477 14.6717 17.6878 13.3083C18.0355 11.914 16.1367 11.4935 15.2091 11.2881C15.1047 11.2649 15.0125 11.2445 14.9373 11.2258L14.282 13.8544C14.3439 13.8699 14.4165 13.8893 14.4979 13.911Z" fill="black"/>
</svg>
