<svg width="24" height="24" viewBox="0 0 24 24" fill="none" xmlns="http://www.w3.org/2000/svg">
<path d="M19 19H5V8H19M16 1V3H8V1H6V3H5C3.89 3 3 3.89 3 5V19C3 19.5304 3.21071 20.0391 3.58579 20.4142C3.96086 20.7893 4.46957 21 5 21H19C19.5304 21 20.0391 20.7893 20.4142 20.4142C20.7893 20.0391 21 19.5304 21 19V5C21 3.89 20.1 3 19 3H18V1" fill="black"/>
<path d="M10 12.1484V11.2222C10.4297 11.2031 10.7305 11.1745 10.9023 11.1363C11.1761 11.0758 11.3989 10.9549 11.5707 10.7734C11.6885 10.6493 11.7776 10.4838 11.8381 10.2769C11.8731 10.1528 11.8906 10.0605 11.8906 10H13.0221V16.9227H11.628V12.1484H10Z" fill="black"/>
</svg>
