<svg width="20" height="20" viewBox="0 0 20 20" fill="none" xmlns="http://www.w3.org/2000/svg">
<g clip-path="url(#clip0_7539_219)">
<path d="M16.8981 15H3.10188C2.77273 15 2.5 14.7193 2.5 14.3804V5.61955C2.5 5.28074 2.77273 5 3.10188 5H16.9075C17.2367 5 17.5094 5.28074 17.5094 5.61955V14.3901C17.5094 14.7289 17.2367 15.0097 16.9075 15.0097L16.8981 15ZM3.10188 5.58083L3.06426 14.3901L16.9075 14.4288C16.9075 14.4288 16.9451 14.4095 16.9451 14.3901V5.61955L3.10188 5.58083Z" fill="#666666"/>
<path d="M17.1521 6.73279H2.78223V7.31362H17.1521V6.73279Z" fill="#666666"/>
<path d="M17.1521 8.8335H2.78223V9.41433H17.1521V8.8335Z" fill="#666666"/>
<path d="M8.08635 11.0601H3.60986V11.6409H8.08635V11.0601Z" fill="#666666"/>
<path d="M6.11143 12.3378H3.60986V12.9187H6.11143V12.3378Z" fill="#666666"/>
<path d="M15.9107 13.122H12.1113V10.4792H15.9107V13.122ZM12.6662 12.5411H15.3464V11.0503H12.6662V12.5411Z" fill="#666666"/>
</g>
<defs>
<clipPath id="clip0_7539_219">
<rect width="15" height="10" fill="white" transform="translate(2.5 5)"/>
</clipPath>
</defs>
</svg>
