<svg width="24" height="25" viewBox="0 0 24 25" fill="none" xmlns="http://www.w3.org/2000/svg">
<path d="M21 8.5V6.5H7V8.5H21ZM21 16.5V11.5H7V16.5H21ZM21 4.5C21.5304 4.5 22.0391 4.71071 22.4142 5.08579C22.7893 5.46086 23 5.96957 23 6.5V16.5C23 17.0304 22.7893 17.5391 22.4142 17.9142C22.0391 18.2893 21.5304 18.5 21 18.5H7C5.89 18.5 5 17.6 5 16.5V6.5C5 5.39 5.89 4.5 7 4.5H21ZM3 20.5H18V22.5H3C2.46957 22.5 1.96086 22.2893 1.58579 21.9142C1.21071 21.5391 1 21.0304 1 20.5V9.5H3V20.5Z" fill="#CDCDCD"/>
</svg>
