<svg width="126" height="32" viewBox="0 0 126 32" fill="none" xmlns="http://www.w3.org/2000/svg">
<g clip-path="url(#clip0_3739_2421)">
<path d="M34.4331 0.435904L31.4295 3.09682L27.4034 6.66455L25.5649 6.65992L16.376 6.63623L21.7666 11.6587L22.6468 12.4794L26.0493 15.6489L22.1747 19.082L21.6678 19.5316L15.1455 25.3106L24.5368 25.3349L27.9057 25.3435L31.1133 28.3322L34.1771 31.1873L27.9097 31.1711L17.9804 31.1457L8.58861 31.1214L0.464844 31.0983L13.414 19.0594L17.3857 15.5402L14.0763 12.4563L0.465422 0.348633L9.65378 0.372329L18.8421 0.396025L28.557 0.420877L34.4331 0.436482V0.435904ZM46.3182 0.466536L43.1944 0.458445L40.0942 3.20548L36.1653 6.68709L35.7133 7.08761L30.7481 11.4876L29.6089 12.4967L26.051 15.6489L29.7569 19.1016L30.6423 19.9269L35.496 24.45L36.4791 25.3661L39.7792 28.4408L42.7505 31.2092L46.0639 31.2179L51.9389 31.2329L49.067 28.557L45.6675 25.3898L44.4757 24.2789L40.1925 20.2882L38.9447 19.1259L35.3382 15.7651L38.9996 12.521L40.304 11.3657L44.6855 7.48351L45.5565 6.71136L49.382 3.32164L52.5862 0.482719L46.3182 0.466536Z" fill="url(#paint0_linear_3739_2421)"/>
<path d="M106.736 19.6196H59.8511V30.7996H106.736V19.6196Z" fill="url(#paint1_linear_3739_2421)"/>
<path d="M60.0117 17.8086V0.358887H67.4622V2.71175H62.5114V7.83361H66.8247V10.1859H62.5114V15.3077H67.4622V17.8074H60.0117V17.8086Z" fill="white"/>
<path d="M77.5592 0.358887L73.981 17.8086H71.7755L68.2217 0.358887H70.8687L72.854 12.5393H72.9031L74.9121 0.358887H77.5592Z" fill="white"/>
<path d="M79.0542 17.8086V0.358887H86.5046V2.71175H81.5539V7.83361H85.8672V10.1859H81.5539V15.3077H86.5046V17.8074H79.0542V17.8086Z" fill="white"/>
<path d="M88.1217 17.8086V0.358887H92.1408C95.0814 0.358887 96.5523 2.06617 96.5523 5.48074C96.5523 6.51009 96.3928 7.38453 96.0744 8.10294C95.7559 8.82191 95.1959 9.40161 94.3954 9.84316L97.091 17.808H94.4439L92.1159 10.3575H90.6208V17.808H88.1211L88.1217 17.8086ZM90.6213 2.71175V8.15264H92.0425C92.4835 8.15264 92.8349 8.09138 93.0961 7.96885C93.3574 7.84632 93.562 7.6712 93.7088 7.44175C93.8394 7.21346 93.9296 6.93142 93.9787 6.5962C94.0278 6.26156 94.0521 5.87318 94.0521 5.43219C94.0521 4.99121 94.0278 4.60283 93.9787 4.26819C93.9296 3.93355 93.8319 3.64342 93.6845 3.39836C93.3741 2.9412 92.7858 2.71233 91.92 2.71233H90.6208L90.6213 2.71175Z" fill="white"/>
<path d="M100.89 17.8086V10.4315L97.4585 0.358887H100.106L102.115 7.29437H102.164L104.174 0.358887H106.821L103.389 10.4315V17.8086H100.89Z" fill="white"/>
<path d="M108.221 30.7849L114.374 14.8454L108.691 0.358887H113.306L116.596 9.3756L119.93 0.358887H124.545L118.733 14.8454L125.014 30.7849H120.399L116.596 20.529L112.836 30.7849H108.221Z" fill="white"/>
<path d="M61.6543 28.5298V27.3958L63.7638 27.4045V23.449L61.919 23.4576V22.3578H66.7056V23.4576L64.8533 23.449V27.4045L67.001 27.3958V28.5211L61.6549 28.5298H61.6543ZM68.1627 28.2142C70.8398 27.4132 71.5582 25.4435 71.709 23.4062C70.6652 23.4316 68.0112 23.4744 68.0112 23.4744V22.2983H72.0038C71.8905 21.8891 71.7316 21.4117 71.6333 21.1897L72.1777 21.0874C72.2685 21.3175 72.465 21.855 72.5939 22.2983H72.8661C72.8661 22.4006 72.8586 22.7924 72.8586 22.9121C72.6621 26.1769 71.4975 28.3252 68.9262 29.2459L68.1627 28.2142ZM73.0626 22.6988C72.9794 22.315 72.7297 21.5481 72.5557 21.1556L73.0926 21.062C73.2516 21.403 73.5313 22.1619 73.6145 22.5537L73.0626 22.6988ZM74.6878 26.1769V21.659H75.716V26.1769H74.6878ZM74.8618 28.1715C77.1603 27.8732 77.5614 26.3214 77.5764 24.9834V21.6417H78.6121C78.6121 21.6417 78.6272 23.253 78.6272 24.2841C78.6272 26.3214 78.5139 28.5379 75.5039 29.2881L74.8612 28.1715H74.8618ZM81.2436 28.5298V27.3958L83.3531 27.4045V23.449L81.5083 23.4576V22.3578H86.2949V23.4576L84.4426 23.449V27.4045L86.5903 27.3958V28.5211L81.2442 28.5298H81.2436ZM88.3663 26.1596C88.253 25.3666 88.0484 24.4887 87.8144 23.7559L88.6085 23.5339C88.835 24.2073 89.0396 25.0938 89.1529 25.8354L88.3663 26.159V26.1596ZM88.2981 28.2911C90.2568 27.6345 91.081 26.1856 91.1411 23.3299L92.0941 23.475C91.8751 26.2966 91.3075 28.2148 88.979 29.1696L88.2981 28.2917V28.2911ZM89.6667 25.9041C89.606 25.2135 89.4246 24.2333 89.2281 23.5339L90.0522 23.3548C90.2412 24.0622 90.4227 24.9742 90.4984 25.6481L89.6667 25.9041ZM93.5078 28.1634C96.2832 27.5669 97.1073 25.3077 97.4021 23.6027H95.7613C95.3527 24.5662 94.7406 25.5036 94.0448 26.1006L93.2056 25.2227C94.4227 24.3275 95.1261 22.6398 95.3683 21.4036L96.4196 21.6509C96.3514 21.9405 96.2682 22.2474 96.1624 22.5462C96.8958 22.5375 98.2494 22.5294 98.5823 22.5294C98.3251 24.891 97.7732 28.1559 94.2569 29.2557L93.5084 28.1645L93.5078 28.1634ZM104.041 28.9222C103.497 27.8478 103.005 27.1491 102.521 26.5439C101.742 27.7628 100.744 28.5558 99.8971 28.965L99.2394 27.9166C101.515 27.0046 102.445 24.8991 102.703 23.3132L99.9272 23.3473V22.1879H103.965C103.799 23.5686 103.504 24.6176 103.073 25.5551C103.625 26.1347 104.283 26.9618 104.835 27.8738L104.041 28.9222H104.041Z" fill="#FEFEFE"/>
</g>
<defs>
<linearGradient id="paint0_linear_3739_2421" x1="0.465422" y1="15.7905" x2="52.5862" y2="15.7905" gradientUnits="userSpaceOnUse">
<stop stop-color="#FFB6D5"/>
<stop offset="0.1" stop-color="#FFE3C0"/>
<stop offset="0.29" stop-color="#C7FBDB"/>
<stop offset="0.43" stop-color="#C7CDF4"/>
<stop offset="0.54" stop-color="#FFBCD4"/>
<stop offset="0.66" stop-color="#FFE0C3"/>
<stop offset="0.76" stop-color="#B0F1D4"/>
<stop offset="0.84" stop-color="#C9CEEC"/>
<stop offset="0.91" stop-color="#FFC1DA"/>
<stop offset="1" stop-color="#BDFFE3"/>
</linearGradient>
<linearGradient id="paint1_linear_3739_2421" x1="59.8511" y1="25.2102" x2="106.736" y2="25.2102" gradientUnits="userSpaceOnUse">
<stop stop-color="#FF007E"/>
<stop offset="1" stop-color="#FF7900"/>
</linearGradient>
<clipPath id="clip0_3739_2421">
<rect width="124.55" height="30.8837" fill="white" transform="translate(0.465332 0.348633)"/>
</clipPath>
</defs>
</svg>
