<svg width="20" height="20" viewBox="0 0 20 20" fill="none" xmlns="http://www.w3.org/2000/svg">
<path d="M14.4574 5.54288L14.4574 5.54289L14.4703 5.55573C14.5236 5.60906 14.5733 5.65867 14.6166 5.70632C15.5411 6.72341 15.5411 8.27659 14.6166 9.29368L13.8924 8.63542L14.6166 9.29368C14.5733 9.34134 14.5236 9.39095 14.4703 9.44429L14.4574 9.45711L8.86029 15.0542C8.84062 15.0739 8.82103 15.0936 8.80149 15.1132C8.53621 15.3792 8.28119 15.6349 7.9621 15.8156C7.64302 15.9963 7.29252 16.0834 6.9279 16.174C6.90106 16.1806 6.87414 16.1873 6.84715 16.1941L5.75695 16.4666C5.74089 16.4706 5.72468 16.4747 5.70833 16.4788C5.45154 16.5431 5.1611 16.6159 4.91399 16.6401C4.63878 16.667 4.14005 16.6646 3.73791 16.2624L4.42481 15.5755L3.73791 16.2624C3.33577 15.8603 3.33329 15.3615 3.36022 15.0863C3.38439 14.8392 3.45717 14.5488 3.52153 14.292C3.52563 14.2757 3.52969 14.2594 3.5337 14.2434L3.80625 13.1532C3.813 13.1262 3.81969 13.0993 3.82636 13.0724C3.91697 12.7078 4.00407 12.3573 4.18473 12.0382L5.05117 12.5288L4.18473 12.0382C4.36539 11.7191 4.62113 11.4641 4.88717 11.1988C4.90676 11.1793 4.9264 11.1597 4.94607 11.14L4.94608 11.14L10.5384 5.54774L10.5432 5.54281L10.5432 5.54288C10.5476 5.53856 10.5518 5.53426 10.5561 5.52999C10.6094 5.47667 10.659 5.42704 10.7067 5.38374M14.4574 5.54288L10.7067 5.38374M14.4574 5.54288L14.4554 5.54091L14.4446 5.53004C14.3913 5.47669 14.3417 5.42706 14.294 5.38375L14.294 5.38374C13.2769 4.45923 11.7237 4.45923 10.7067 5.38374M14.4574 5.54288L11.3793 6.12372L10.7067 5.38374" stroke="#666666" stroke-width="2"/>
<path d="M10.417 6.25L13.7503 9.58333" stroke="#666666" stroke-width="1.66667"/>
</svg>
