<?xml version="1.0" encoding="utf-8"?>
<!-- Generator: Adobe Illustrator 25.2.3, SVG Export Plug-In . SVG Version: 6.00 Build 0)  -->
<svg version="1.1" id="Layer_1" xmlns="http://www.w3.org/2000/svg" xmlns:xlink="http://www.w3.org/1999/xlink" x="0px" y="0px"
	 viewBox="0 0 96 96" style="enable-background:new 0 0 96 96;" xml:space="preserve">
<style type="text/css">
	.st0{fill-rule:evenodd;clip-rule:evenodd;fill:#FFFFFF;}
</style>
<image style="overflow:visible;" width="8160" height="1400" xlink:href="35CD38E2.jpg"  transform="matrix(1 0 0 1 -8144 -8144)">
</image>
<path class="st0" d="M0,96h16l34.8-34.8C54.9,63,59.3,64,64,64c17.7,0,32-14.3,32-32S81.7,0,64,0S32,14.3,32,32
	c0,4.7,1,9.1,2.8,13.1L0,80V96z M72,16c4.4,0,8,3.6,8,8s-3.6,8-8,8s-8-3.6-8-8S67.6,16,72,16z"/>
</svg>
