<svg 
 xmlns="http://www.w3.org/2000/svg"
 xmlns:xlink="http://www.w3.org/1999/xlink"
 width="40px" height="32px">
<path fill-rule="evenodd"  fill="rgb(255, 255, 255)"
 d="M31.997,31.999 L-0.003,31.999 L-0.003,7.998 L7.997,-0.002 L39.998,-0.002 L39.998,23.999 L31.997,31.999 ZM27.997,5.998 C26.518,5.998 25.229,6.804 24.537,7.998 L11.997,7.998 L7.997,11.998 L24.537,11.998 C25.229,13.193 26.518,13.999 27.997,13.999 C30.207,13.999 31.997,12.207 31.997,9.998 C31.997,7.789 30.207,5.998 27.997,5.998 ZM15.419,19.998 C14.719,18.852 13.451,18.081 11.997,18.081 C9.788,18.081 7.997,19.854 7.997,22.040 C7.997,24.226 9.788,25.998 11.997,25.998 C13.485,25.998 14.781,25.192 15.470,23.999 L27.997,23.999 L31.997,19.998 L15.419,19.998 Z"/>
</svg>