<?xml version="1.0" encoding="utf-8"?>
<!-- Generator: Adobe Illustrator 25.2.3, SVG Export Plug-In . SVG Version: 6.00 Build 0)  -->
<svg version="1.1" xmlns="http://www.w3.org/2000/svg" xmlns:xlink="http://www.w3.org/1999/xlink" x="0px" y="0px"
	 viewBox="0 0 160 160" style="enable-background:new 0 0 160 160;" xml:space="preserve">
<style type="text/css">
	.st0{display:none;}
	.st1{display:inline;fill-rule:evenodd;clip-rule:evenodd;fill:#004D4D;}
	.st2{display:inline;fill-rule:evenodd;clip-rule:evenodd;fill:#FFFFFF;}
	.st3{display:inline;fill-rule:evenodd;clip-rule:evenodd;fill:#00E6E6;}
	.st4{display:inline;fill-rule:evenodd;clip-rule:evenodd;fill:#00B3B3;}
	.st5{display:inline;fill-rule:evenodd;clip-rule:evenodd;fill:#008080;}
	.st6{fill-rule:evenodd;clip-rule:evenodd;fill:#004D4D;}
	.st7{fill-rule:evenodd;clip-rule:evenodd;fill:#FFFFFF;}
	.st8{fill-rule:evenodd;clip-rule:evenodd;fill:#E5FFFF;}
	.st9{fill-rule:evenodd;clip-rule:evenodd;fill:#00B3B3;}
	.st10{fill-rule:evenodd;clip-rule:evenodd;fill:#008080;}
	.st11{fill-rule:evenodd;clip-rule:evenodd;fill:#1AE9E9;}
</style>
<g id="Layer_3" class="st0">
	<path class="st1" d="M96,128H0V48L48,0h112v64L96,128z"/>
	<path class="st2" d="M96,64V48c0-8.8-7.2-16-16-16c-8.8,0-16,7.2-16,16v48H48V48c0-17.7,14.3-32,32-32s32,14.3,32,32v16H96z"/>
	<path class="st3" d="M32,80h48v80H32V80z"/>
	<path class="st4" d="M80,80h48v80H80V80z"/>
	<path class="st5" d="M88,125.8V144H72v-18.2c-4.8-2.8-8-7.9-8-13.8c0-8.8,7.2-16,16-16c8.8,0,16,7.2,16,16
		C96,117.9,92.8,123.1,88,125.8z"/>
</g>
<g id="Layer_2">
	<path class="st6" d="M0,160V64l32-32h96l32,32v96H0z"/>
	<path class="st7" d="M16,144V32L48,0h96v144H16z"/>
	<path class="st8" d="M16,64l32,32h64l32-32v80H16V64z"/>
	<path class="st9" d="M0,64l48,48h64l48-48v96H0V64z"/>
	<path class="st10" d="M0,160l48-48h64l48,48H0z"/>
	<path class="st11" d="M112,16L64,64L48,48L32,64l32,32l64-64L112,16z"/>
</g>
</svg>
