<?xml version="1.0" encoding="utf-8"?>
<!-- Generator: Adobe Illustrator 25.2.3, SVG Export Plug-In . SVG Version: 6.00 Build 0)  -->
<svg version="1.1" id="Layer_1" xmlns="http://www.w3.org/2000/svg" xmlns:xlink="http://www.w3.org/1999/xlink" x="0px" y="0px"
	 viewBox="0 0 160 160" style="enable-background:new 0 0 160 160;" xml:space="preserve">
<style type="text/css">
	.st0{fill-rule:evenodd;clip-rule:evenodd;fill:#FFFFFF;}
</style>
<path class="st0" d="M80,160c-44.2,0-80-14.3-80-32v-16c0,17.7,35.8,32,80,32s80-14.3,80-32v16C160,145.7,124.2,160,80,160z M80,128
	c-44.2,0-80-14.3-80-32V80c0,17.7,35.8,32,80,32s80-14.3,80-32v16C160,113.7,124.2,128,80,128z M80,96C35.8,96,0,81.7,0,64V48
	c0,17.7,35.8,32,80,32s80-14.3,80-32v16C160,81.7,124.2,96,80,96z M80,64C35.8,64,0,49.7,0,32S35.8,0,80,0s80,14.3,80,32
	S124.2,64,80,64z M95.1,16.5L39.3,44.3c7.3,1.5,16.1,2.6,25.6,3.2l55.8-27.9C113.4,18.1,104.6,17,95.1,16.5z"/>
</svg>
