<?xml version="1.0" encoding="utf-8"?>
<!-- Generator: Adobe Illustrator 25.2.3, SVG Export Plug-In . SVG Version: 6.00 Build 0)  -->
<svg version="1.1" id="Layer_1" xmlns="http://www.w3.org/2000/svg" xmlns:xlink="http://www.w3.org/1999/xlink" x="0px" y="0px"
	 viewBox="0 0 160 160" style="enable-background:new 0 0 160 160;" xml:space="preserve">
<style type="text/css">
	.st0{fill-rule:evenodd;clip-rule:evenodd;fill:#FFFFFF;}
</style>
<path class="st0" d="M144,136H16c-8.8,0-16-7.2-16-16V72h160v48C160,128.8,152.8,136,144,136z M128,88c-2.9,0-5.6,0.8-8,2.2
	c-2.4-1.4-5.1-2.2-8-2.2c-8.8,0-16,7.2-16,16s7.2,16,16,16c2.9,0,5.6-0.8,8-2.2c2.4,1.4,5.1,2.2,8,2.2c8.8,0,16-7.2,16-16
	S136.8,88,128,88z M0,40c0-8.8,7.2-16,16-16h128c8.8,0,16,7.2,16,16v16H0V40z"/>
</svg>
