<?xml version="1.0" encoding="utf-8"?>
<!-- Generator: Adobe Illustrator 25.2.3, SVG Export Plug-In . SVG Version: 6.00 Build 0)  -->
<svg version="1.1" id="Layer_1" xmlns="http://www.w3.org/2000/svg" xmlns:xlink="http://www.w3.org/1999/xlink" x="0px" y="0px"
	 viewBox="0 0 160 160" style="enable-background:new 0 0 160 160;" xml:space="preserve">
<style type="text/css">
	.st0{fill-rule:evenodd;clip-rule:evenodd;fill:#FFFFFF;}
</style>
<path class="st0" d="M144,144c-8.8,0-16,7.2-16,16H32c0-8.8-7.2-16-16-16V16c8.8,0,16-7.2,16-16h96c0,8.8,7.2,16,16,16l0,0V144
	L144,144z M80,32c-26.5,0-48,21.5-48,48c0,26.5,21.5,48,48,48c26.5,0,48-21.5,48-48C128,53.5,106.5,32,80,32z M74.5,85.8
	C73,84.3,72,82.3,72,80V48h16v28.7L108.3,97L97,108.3L74.5,85.8z"/>
</svg>
