<?xml version="1.0" encoding="utf-8"?>
<!-- Generator: Adobe Illustrator 25.2.3, SVG Export Plug-In . SVG Version: 6.00 Build 0)  -->
<svg version="1.1" id="Layer_3" xmlns="http://www.w3.org/2000/svg" xmlns:xlink="http://www.w3.org/1999/xlink" x="0px" y="0px"
	 viewBox="0 0 160 160" style="enable-background:new 0 0 160 160;" xml:space="preserve">
<style type="text/css">
	.st0{fill-rule:evenodd;clip-rule:evenodd;fill:#004D4D;}
	.st1{fill-rule:evenodd;clip-rule:evenodd;fill:#FFFFFF;}
	.st2{fill-rule:evenodd;clip-rule:evenodd;fill:#00E6E6;}
	.st3{fill-rule:evenodd;clip-rule:evenodd;fill:#00B3B3;}
	.st4{fill-rule:evenodd;clip-rule:evenodd;fill:#008080;}
</style>
<path class="st0" d="M96,128H0V48L48,0h112v64L96,128z"/>
<path class="st1" d="M96,80V64c0-8.8-7.2-16-16-16c-8.8,0-16,7.2-16,16v48H48V64c0-17.7,14.3-32,32-32s32,14.3,32,32v16H96z"/>
<path class="st2" d="M32,80h48v80H32V80z"/>
<path class="st3" d="M80,80h48v80H80V80z"/>
<path class="st4" d="M88,125.8V144H72v-18.2c-4.8-2.8-8-7.9-8-13.8c0-8.8,7.2-16,16-16c8.8,0,16,7.2,16,16
	C96,117.9,92.8,123.1,88,125.8z"/>
</svg>
