<?xml version="1.0" encoding="utf-8"?>
<!-- Generator: Adobe Illustrator 25.2.3, SVG Export Plug-In . SVG Version: 6.00 Build 0)  -->
<svg version="1.1" id="Layer_1" xmlns="http://www.w3.org/2000/svg" xmlns:xlink="http://www.w3.org/1999/xlink" x="0px" y="0px"
	 viewBox="0 0 320 320" style="enable-background:new 0 0 320 320;" xml:space="preserve">
<style type="text/css">
	.st0{fill-rule:evenodd;clip-rule:evenodd;fill:#D1FFFF;}
	.st1{fill-rule:evenodd;clip-rule:evenodd;fill:#FFFFFF;}
	.st2{fill-rule:evenodd;clip-rule:evenodd;fill:#1AE9E9;}
	.st3{fill-rule:evenodd;clip-rule:evenodd;fill:#00B3B3;}
</style>
<path class="st0" d="M160,16c79.5,0,144,64.5,144,144s-64.5,144-144,144S16,239.5,16,160S80.5,16,160,16z"/>
<path class="st1" d="M160,48c61.9,0,112,50.1,112,112s-50.1,112-112,112S48,221.9,48,160S98.1,48,160,48z"/>
<path class="st2" d="M160,320C71.6,320,0,248.4,0,160S71.6,0,160,0s160,71.6,160,160S248.4,320,160,320z M160,32
	C89.3,32,32,89.3,32,160s57.3,128,128,128s128-57.3,128-128S230.7,32,160,32z M160,256c-53,0-96-43-96-96s43-96,96-96s96,43,96,96
	S213,256,160,256z M160,80c-44.2,0-80,35.8-80,80c0,9.6,1.7,18.7,4.8,27.2L112,160l16,16l40-40l-24-24h48h16v16v48l-24-24l-56,56
	l-16-16l-16,16c14.6,19.4,37.8,32,64,32c44.2,0,80-35.8,80-80S204.2,80,160,80z"/>
<path class="st3" d="M319.2,176H287c0.7-5.2,1-10.6,1-16s-0.3-10.8-1-16h32.2c0.5,5.3,0.8,10.6,0.8,16S319.7,170.7,319.2,176z
	 M238.5,58.9l22.8-22.8c8.3,6.8,15.9,14.4,22.6,22.6l-22.8,22.8C254.5,73.1,246.9,65.5,238.5,58.9z M160,256
	c-34.7,0-65.1-18.4-82-46l34-34l16,16l80-80v64l-24-24l-56,56l-16-16l-16,16c14.6,19.4,37.8,32,64,32c44.2,0,80-35.8,80-80
	c0-22.1-9-42.1-23.4-56.6l11.3-11.3c17.4,17.4,28.1,41.4,28.1,67.9C256,213,213,256,160,256z M144,33V0.8c5.3-0.5,10.6-0.8,16-0.8
	s10.7,0.3,16,0.8V33c-5.2-0.7-10.6-1-16-1S149.2,32.3,144,33z M58.9,81.5L36.1,58.7c6.8-8.3,14.4-15.9,22.6-22.6l22.8,22.8
	C73.1,65.5,65.5,73.1,58.9,81.5z M0.8,176C0.3,170.7,0,165.4,0,160s0.3-10.7,0.8-16H33c-0.7,5.2-1,10.6-1,16s0.3,10.8,1,16H0.8z
	 M81.5,261.1l-22.8,22.8c-8.3-6.8-15.9-14.4-22.6-22.6l22.8-22.8C65.5,246.9,73.1,254.5,81.5,261.1z M176,287v32.2
	c-5.3,0.5-10.6,0.8-16,0.8s-10.7-0.3-16-0.8V287c5.2,0.7,10.6,1,16,1S170.8,287.7,176,287z M261.1,238.5l22.8,22.8
	c-6.8,8.3-14.4,15.9-22.6,22.6l-22.8-22.8C246.9,254.5,254.5,246.9,261.1,238.5z"/>
</svg>
