<?xml version="1.0" encoding="utf-8"?>
<!-- Generator: Adobe Illustrator 25.2.3, SVG Export Plug-In . SVG Version: 6.00 Build 0)  -->
<svg version="1.1" id="Layer_2" xmlns="http://www.w3.org/2000/svg" xmlns:xlink="http://www.w3.org/1999/xlink" x="0px" y="0px"
	 viewBox="0 0 160 160" style="enable-background:new 0 0 160 160;" xml:space="preserve">
<style type="text/css">
	.st0{fill-rule:evenodd;clip-rule:evenodd;fill:#004D4D;}
	.st1{fill-rule:evenodd;clip-rule:evenodd;fill:#FFFFFF;}
	.st2{fill-rule:evenodd;clip-rule:evenodd;fill:#E5FFFF;}
	.st3{fill-rule:evenodd;clip-rule:evenodd;fill:#00B3B3;}
	.st4{fill-rule:evenodd;clip-rule:evenodd;fill:#008080;}
	.st5{fill-rule:evenodd;clip-rule:evenodd;fill:#CC0000;}
</style>
<g id="Layer_2_1_">
	<path class="st0" d="M0,160V64l32-32h96l32,32v96H0z"/>
	<path class="st1" d="M16,144V32L48,0h96v144H16z"/>
	<path class="st2" d="M16,64l32,32h64l32-32v80H16V64z"/>
	<path class="st3" d="M0,64l48,48h64l48-48v96H0V64z"/>
	<path class="st4" d="M0,160l48-48h64l48,48H0z"/>
</g>
<path class="st5" d="M96,32l16,16L96,64l16,16L96,96L80.1,80L64,96L48,80l16-16L48,48l16-16l16.1,16L96,32z"/>
</svg>
