<svg 
 xmlns="http://www.w3.org/2000/svg"
 xmlns:xlink="http://www.w3.org/1999/xlink"
 width="40px" height="40px">
<path fill-rule="evenodd"  fill="rgb(255, 255, 255)"
 d="M25.164,9.179 C23.597,8.429 21.849,7.997 19.996,7.997 C18.145,7.997 16.399,8.428 14.834,9.177 L8.973,3.316 C12.134,1.223 15.920,-0.003 19.996,-0.003 C24.073,-0.003 27.861,1.224 31.024,3.319 L25.164,9.179 ZM7.997,19.997 C7.997,21.850 8.429,23.597 9.179,25.164 L3.318,31.025 C1.222,27.863 -0.004,24.075 -0.004,19.997 C-0.004,15.921 1.222,12.134 3.316,8.973 L9.177,14.834 C8.428,16.399 7.997,18.146 7.997,19.997 ZM5.873,34.157 C5.860,34.145 5.848,34.133 5.836,34.120 L5.873,34.157 ZM14.837,30.819 C16.402,31.566 18.146,31.997 19.996,31.997 C21.848,31.997 23.594,31.566 25.160,30.817 L31.021,36.677 C27.859,38.771 24.072,39.997 19.996,39.997 C15.922,39.997 12.137,38.772 8.976,36.681 L14.837,30.819 ZM31.995,19.997 C31.995,18.148 31.565,16.403 30.818,14.839 L36.679,8.978 C38.771,12.138 39.996,15.923 39.996,19.997 C39.996,24.073 38.770,27.859 36.677,31.020 L30.816,25.159 C31.564,23.594 31.995,21.848 31.995,19.997 Z"/>
</svg>