<?xml version="1.0" encoding="utf-8"?>
<!-- Generator: Adobe Illustrator 25.2.3, SVG Export Plug-In . SVG Version: 6.00 Build 0)  -->
<svg version="1.1" id="Layer_1" xmlns="http://www.w3.org/2000/svg" xmlns:xlink="http://www.w3.org/1999/xlink" x="0px" y="0px"
	 viewBox="0 0 160 160" style="enable-background:new 0 0 160 160;" xml:space="preserve">
<style type="text/css">
	.st0{fill-rule:evenodd;clip-rule:evenodd;fill:#FFFFFF;}
</style>
<path class="st0" d="M144,144c-8.8,0-16,7.2-16,16H32c0-8.8-7.2-16-16-16V16c8.8,0,16-7.2,16-16h96c0,8.8,7.2,16,16,16l0,0V144
	L144,144z M128,48l-16-16L80.1,64L48,32L32,48l32,32l-32,32l16,16l32.1-32l31.9,32l16-16L96,80L128,48z"/>
</svg>
