<?xml version="1.0" encoding="utf-8"?>
<!-- Generator: Adobe Illustrator 25.2.3, SVG Export Plug-In . SVG Version: 6.00 Build 0)  -->
<svg version="1.1" id="Layer_1" xmlns="http://www.w3.org/2000/svg" xmlns:xlink="http://www.w3.org/1999/xlink" x="0px" y="0px"
	 viewBox="0 0 160 160" style="enable-background:new 0 0 160 160;" xml:space="preserve">
<style type="text/css">
	.st0{fill-rule:evenodd;clip-rule:evenodd;fill:#FFFFFF;}
</style>
<path class="st0" d="M100.7,36.7C94.4,33.7,87.4,32,80,32s-14.4,1.7-20.7,4.7L35.9,13.3C48.5,4.9,63.7,0,80,0s31.5,4.9,44.1,13.3
	L100.7,36.7z M32,80c0,7.4,1.7,14.4,4.7,20.7l-23.4,23.4C4.9,111.5,0,96.3,0,80s4.9-31.5,13.3-44.1l23.4,23.4
	C33.7,65.6,32,72.6,32,80z M59.3,123.3c6.3,3,13.3,4.7,20.7,4.7s14.4-1.7,20.7-4.7l23.4,23.4C111.5,155.1,96.3,160,80,160
	s-31.5-4.9-44.1-13.3L59.3,123.3z M128,80c0-7.4-1.7-14.4-4.7-20.7l23.4-23.4C155.1,48.5,160,63.7,160,80s-4.9,31.5-13.3,44.1
	l-23.4-23.4C126.3,94.4,128,87.4,128,80z"/>
</svg>
