<?xml version="1.0" encoding="utf-8"?>
<!-- Generator: Adobe Illustrator 25.2.3, SVG Export Plug-In . SVG Version: 6.00 Build 0)  -->
<svg version="1.1" id="Layer_4" xmlns="http://www.w3.org/2000/svg" xmlns:xlink="http://www.w3.org/1999/xlink" x="0px" y="0px"
	 viewBox="0 0 160 160" style="enable-background:new 0 0 160 160;" xml:space="preserve">
<style type="text/css">
	.st0{fill-rule:evenodd;clip-rule:evenodd;fill:#008080;}
	.st1{fill-rule:evenodd;clip-rule:evenodd;fill:#004D4D;}
	.st2{fill-rule:evenodd;clip-rule:evenodd;fill:#FFFFFF;}
	.st3{fill-rule:evenodd;clip-rule:evenodd;fill:#E5FFFF;}
	.st4{fill-rule:evenodd;clip-rule:evenodd;fill:#1AE9E9;}
</style>
<path class="st0" d="M16,0h128c8.8,0,16,7.2,16,16v16c0,8.8-7.2,16-16,16H16C7.2,48,0,40.8,0,32V16C0,7.2,7.2,0,16,0z"/>
<path class="st1" d="M144,48L144,48l0-32l16,16l0,0C160,40.8,152.8,48,144,48z"/>
<path class="st2" d="M16,16h128v128c0,8.8-7.2,16-16,16H32c-8.8,0-16-7.2-16-16V16z"/>
<path class="st3" d="M16,16l128,128V16H16z"/>
<path class="st4" d="M32,48l48,48l48-48v32l-48,48L32,80V48z"/>
</svg>
