<?xml version="1.0" encoding="utf-8"?>
<!-- Generator: Adobe Illustrator 25.2.3, SVG Export Plug-In . SVG Version: 6.00 Build 0)  -->
<svg version="1.1" id="Layer_1" xmlns="http://www.w3.org/2000/svg" xmlns:xlink="http://www.w3.org/1999/xlink" x="0px" y="0px"
	 viewBox="0 0 320 320" style="enable-background:new 0 0 320 320;" xml:space="preserve">
<style type="text/css">
	.st0{fill-rule:evenodd;clip-rule:evenodd;fill:#D1FFFF;}
	.st1{fill-rule:evenodd;clip-rule:evenodd;fill:#FFFFFF;}
	.st2{fill-rule:evenodd;clip-rule:evenodd;fill:#1AE9E9;}
	.st3{fill-rule:evenodd;clip-rule:evenodd;fill:#00B3B3;}
	.st4{fill:#FFFFFF;}
</style>
<path class="st0" d="M48,0h224l48,48H0L48,0z"/>
<path class="st1" d="M224,144l-48-48l96-96l48,48L224,144z M0,48L48,0l96,96l-48,48L0,48z"/>
<path class="st0" d="M50.5,98.5c15-17.5,34.1-31.4,55.8-40.2L144,96l-48,48L50.5,98.5z M224,144l-48-48l37.7-37.7
	c21.7,8.7,40.9,22.6,55.8,40.2L224,144z"/>
<path class="st2" d="M160,64c70.7,0,128,57.3,128,128s-57.3,128-128,128S32,262.7,32,192S89.3,64,160,64z"/>
<path class="st3" d="M160,288c-53,0-96-43-96-96s43-96,96-96s96,43,96,96S213,288,160,288z M160,112c-44.2,0-80,35.8-80,80
	s35.8,80,80,80s80-35.8,80-80S204.2,112,160,112z"/>
<path class="st4" d="M160,144l12,35.7l36,1l-28.6,23l10.2,36.3L160,218.5L130.3,240l10.2-36.3l-28.6-23l36-1L160,144z"/>
<path class="st0" d="M180.9,202.5L160,192l45.6-11.4l2.4,0.1L180.9,202.5z M189.7,240L160,218.5L130.3,240l1.7-6.1l28-41.9l28,41.9
	L189.7,240z M112,180.7l2.4-0.1L160,192l-20.9,10.5L112,180.7z"/>
</svg>
