<?xml version="1.0" encoding="utf-8"?>
<!-- Generator: Adobe Illustrator 25.2.3, SVG Export Plug-In . SVG Version: 6.00 Build 0)  -->
<svg version="1.1" id="Layer_1" xmlns="http://www.w3.org/2000/svg" xmlns:xlink="http://www.w3.org/1999/xlink" x="0px" y="0px"
	 viewBox="0 0 160 160" style="enable-background:new 0 0 160 160;" xml:space="preserve">
<style type="text/css">
	.st0{fill-rule:evenodd;clip-rule:evenodd;fill:#FFFFFF;}
</style>
<path class="st0" d="M144,48V24H16v24C7.2,48,0,40.8,0,32V16C0,7.2,7.2,0,16,0h128c8.8,0,16,7.2,16,16v16C160,40.8,152.8,48,144,48z
	 M144,144c0,8.8-7.2,16-16,16H32c-8.8,0-16-7.2-16-16V48h128V144z M128,112L80,64l-48,48v32l48-48l48,48V112z"/>
</svg>
