<?xml version="1.0" encoding="utf-8"?>
<!-- Generator: Adobe Illustrator 25.2.3, SVG Export Plug-In . SVG Version: 6.00 Build 0)  -->
<svg version="1.1" id="Layer_1" xmlns="http://www.w3.org/2000/svg" xmlns:xlink="http://www.w3.org/1999/xlink" x="0px" y="0px"
	 viewBox="0 0 160 160" style="enable-background:new 0 0 160 160;" xml:space="preserve">
<style type="text/css">
	.st0{fill-rule:evenodd;clip-rule:evenodd;fill:#FFFFFF;}
</style>
<path class="st0" d="M136.6,136.6l-22.6-22.6C105.3,122.6,93.3,128,80,128s-25.3-5.4-33.9-14.1l-22.6,22.6C9,122.1,0,102.1,0,80
	C0,35.8,35.8,0,80,0s80,35.8,80,80C160,102.1,151,122.1,136.6,136.6z M80,48c-17.7,0-32,14.3-32,32s14.3,32,32,32s32-14.3,32-32
	S97.7,48,80,48z"/>
</svg>
