<svg 
 xmlns="http://www.w3.org/2000/svg"
 xmlns:xlink="http://www.w3.org/1999/xlink"
 width="40px" height="40px">
<path fill-rule="evenodd"  fill="rgb(255, 255, 255)"
 d="M35.999,39.1000 L3.1000,39.1000 C1.790,39.1000 -0.001,38.209 -0.001,36.000 L-0.001,12.005 L39.999,12.005 L39.999,20.004 L35.999,20.004 C33.790,20.004 31.999,21.794 31.999,24.003 L31.999,28.002 C31.999,30.211 33.790,32.001 35.999,32.001 L39.999,32.001 L39.999,36.000 C39.999,38.209 38.209,39.1000 35.999,39.1000 ZM16.030,16.004 L3.1000,36.000 L27.999,36.000 L16.030,16.004 ZM16.043,24.003 L21.031,32.001 L11.031,32.001 L16.043,24.003 ZM35.999,24.003 L39.999,24.003 L39.999,28.002 L35.999,28.002 L35.999,24.003 ZM24.804,0.439 C26.771,-0.567 29.182,0.212 30.188,2.178 L33.172,8.006 L10.002,8.006 L24.804,0.439 Z"/>
</svg>