<svg 
 xmlns="http://www.w3.org/2000/svg"
 xmlns:xlink="http://www.w3.org/1999/xlink"
 width="40px" height="32px">
<path fill-rule="evenodd"  fill="rgb(255, 255, 255)"
 d="M31.1000,31.1000 L-0.000,31.1000 L-0.000,-0.000 L39.1000,-0.000 L39.1000,23.1000 L31.1000,31.1000 ZM23.1000,3.1000 C19.581,3.1000 15.1000,7.581 15.1000,11.1000 C15.1000,13.167 16.252,14.275 16.701,15.275 L7.1000,23.1000 L7.1000,27.1000 L11.1000,27.1000 L20.708,19.291 C21.712,19.745 22.826,19.999 23.1000,19.999 C28.418,19.999 31.1000,16.418 31.1000,11.1000 C31.1000,7.581 28.418,3.1000 23.1000,3.1000 ZM25.1000,11.1000 C24.895,11.1000 23.1000,11.104 23.1000,9.1000 C23.1000,8.895 24.895,7.1000 25.1000,7.1000 C27.104,7.1000 27.1000,8.895 27.1000,9.1000 C27.1000,11.104 27.104,11.1000 25.1000,11.1000 Z"/>
</svg>