<svg 
 xmlns="http://www.w3.org/2000/svg"
 xmlns:xlink="http://www.w3.org/1999/xlink"
 width="40px" height="40px">
<path fill-rule="evenodd"  fill="rgb(255, 255, 255)"
 d="M-0.000,39.1000 L-0.000,7.1000 L39.1000,7.1000 L39.1000,39.1000 L-0.000,39.1000 ZM19.1000,11.1000 C13.372,11.1000 7.999,17.372 7.999,23.1000 C7.999,30.627 13.372,35.1000 19.1000,35.1000 C26.627,35.1000 31.1000,30.627 31.1000,23.1000 C31.1000,17.372 26.627,11.1000 19.1000,11.1000 ZM39.1000,31.1000 L31.1000,39.1000 L39.1000,39.1000 L39.1000,31.1000 ZM18.617,25.440 C18.237,25.076 17.999,24.565 17.999,23.997 L17.999,15.997 L21.999,15.997 L21.999,23.165 L27.082,28.248 L24.253,31.077 L18.617,25.440 ZM-0.000,-0.000 L39.1000,-0.000 L39.1000,3.1000 L-0.000,3.1000 L-0.000,-0.000 Z"/>
</svg>