<svg width="30" height="30" viewBox="0 0 30 30" fill="none" xmlns="http://www.w3.org/2000/svg">
<circle cx="15" cy="15" r="15" fill="black"/>
<path d="M4.11355 19V11.7273H5.65119V17.7322H8.76909V19H4.11355ZM12.2235 19.1065C11.6718 19.1065 11.1948 18.9893 10.7923 18.755C10.3923 18.5182 10.0833 18.1892 9.8655 17.7678C9.6477 17.344 9.5388 16.8527 9.5388 16.294C9.5388 15.7306 9.6477 15.2382 9.8655 14.8168C10.0833 14.393 10.3923 14.0639 10.7923 13.8295C11.1948 13.5928 11.6718 13.4744 12.2235 13.4744C12.7751 13.4744 13.2509 13.5928 13.651 13.8295C14.0535 14.0639 14.3636 14.393 14.5814 14.8168C14.7992 15.2382 14.9081 15.7306 14.9081 16.294C14.9081 16.8527 14.7992 17.344 14.5814 17.7678C14.3636 18.1892 14.0535 18.5182 13.651 18.755C13.2509 18.9893 12.7751 19.1065 12.2235 19.1065ZM12.2306 17.9347C12.4815 17.9347 12.691 17.8636 12.8591 17.7216C13.0272 17.5772 13.1539 17.3807 13.2391 17.1321C13.3267 16.8835 13.3705 16.6006 13.3705 16.2834C13.3705 15.9661 13.3267 15.6832 13.2391 15.4347C13.1539 15.1861 13.0272 14.9896 12.8591 14.8452C12.691 14.7008 12.4815 14.6286 12.2306 14.6286C11.9772 14.6286 11.7642 14.7008 11.5914 14.8452C11.4209 14.9896 11.2919 15.1861 11.2043 15.4347C11.1191 15.6832 11.0764 15.9661 11.0764 16.2834C11.0764 16.6006 11.1191 16.8835 11.2043 17.1321C11.2919 17.3807 11.4209 17.5772 11.5914 17.7216C11.7642 17.8636 11.9772 17.9347 12.2306 17.9347ZM20.4301 15.1009L19.0452 15.1861C19.0215 15.0677 18.9706 14.9612 18.8925 14.8665C18.8144 14.7694 18.7114 14.6925 18.5835 14.6357C18.4581 14.5765 18.3077 14.5469 18.1325 14.5469C17.8982 14.5469 17.7005 14.5966 17.5395 14.696C17.3785 14.7931 17.298 14.9233 17.298 15.0866C17.298 15.2169 17.3501 15.3269 17.4543 15.4169C17.5584 15.5069 17.7372 15.5791 17.9905 15.6335L18.9777 15.8324C19.508 15.9413 19.9034 16.1165 20.1638 16.358C20.4242 16.5994 20.5544 16.9167 20.5544 17.3097C20.5544 17.6671 20.4491 17.9808 20.2384 18.2507C20.03 18.5206 19.7436 18.7313 19.379 18.8828C19.0168 19.032 18.5989 19.1065 18.1254 19.1065C17.4034 19.1065 16.8281 18.9562 16.3996 18.6555C15.9735 18.3525 15.7237 17.9406 15.6503 17.4197L17.1382 17.3416C17.1832 17.5618 17.2921 17.7299 17.4649 17.8459C17.6378 17.9595 17.8591 18.0163 18.129 18.0163C18.3941 18.0163 18.6072 17.9654 18.7682 17.8636C18.9316 17.7595 19.0144 17.6257 19.0168 17.4624C19.0144 17.325 18.9564 17.2126 18.8428 17.125C18.7291 17.035 18.5539 16.9664 18.3172 16.919L17.3726 16.7308C16.8399 16.6243 16.4434 16.4396 16.183 16.1768C15.9249 15.9141 15.7959 15.5791 15.7959 15.1719C15.7959 14.8215 15.8906 14.5196 16.08 14.2663C16.2718 14.013 16.5405 13.8177 16.8861 13.6804C17.2341 13.5431 17.6413 13.4744 18.1077 13.4744C18.7966 13.4744 19.3387 13.62 19.7341 13.9112C20.1318 14.2024 20.3638 14.599 20.4301 15.1009ZM26.0454 15.1009L24.6604 15.1861C24.6367 15.0677 24.5858 14.9612 24.5077 14.8665C24.4296 14.7694 24.3266 14.6925 24.1988 14.6357C24.0733 14.5765 23.923 14.5469 23.7478 14.5469C23.5134 14.5469 23.3157 14.5966 23.1547 14.696C22.9938 14.7931 22.9133 14.9233 22.9133 15.0866C22.9133 15.2169 22.9653 15.3269 23.0695 15.4169C23.1737 15.5069 23.3524 15.5791 23.6057 15.6335L24.593 15.8324C25.1233 15.9413 25.5186 16.1165 25.779 16.358C26.0394 16.5994 26.1697 16.9167 26.1697 17.3097C26.1697 17.6671 26.0643 17.9808 25.8536 18.2507C25.6453 18.5206 25.3588 18.7313 24.9942 18.8828C24.632 19.032 24.2142 19.1065 23.7407 19.1065C23.0186 19.1065 22.4433 18.9562 22.0148 18.6555C21.5887 18.3525 21.3389 17.9406 21.2655 17.4197L22.7535 17.3416C22.7984 17.5618 22.9073 17.7299 23.0802 17.8459C23.253 17.9595 23.4743 18.0163 23.7442 18.0163C24.0094 18.0163 24.2224 17.9654 24.3834 17.8636C24.5468 17.7595 24.6296 17.6257 24.632 17.4624C24.6296 17.325 24.5716 17.2126 24.458 17.125C24.3444 17.035 24.1692 16.9664 23.9324 16.919L22.9878 16.7308C22.4552 16.6243 22.0586 16.4396 21.7982 16.1768C21.5402 15.9141 21.4111 15.5791 21.4111 15.1719C21.4111 14.8215 21.5058 14.5196 21.6952 14.2663C21.887 14.013 22.1557 13.8177 22.5013 13.6804C22.8493 13.5431 23.2565 13.4744 23.7229 13.4744C24.4118 13.4744 24.954 13.62 25.3493 13.9112C25.7471 14.2024 25.9791 14.599 26.0454 15.1009Z" fill="#ED0000"/>
</svg>
