<svg width="31" height="30" viewBox="0 0 31 30" fill="none" xmlns="http://www.w3.org/2000/svg">
<circle cx="15.5835" cy="15" r="15" fill="black"/>
<path d="M12.0835 6.34H17.7435V8.18H10.6235L12.0835 6.34ZM11.3235 14.34V15.48H20.0835V14.34H11.3235ZM11.3235 17.22V18.38H20.0835V17.22H11.3235ZM11.3235 11.5V12.62H20.0835V11.5H11.3235ZM8.9235 9.62H22.5835V20.24H8.9235V9.62ZM11.5835 5.02L14.1835 5.54C12.7235 7.94 10.8035 10.18 8.0235 12.04C7.6435 11.48 6.8235 10.68 6.2635 10.32C8.8235 8.82 10.6035 6.8 11.5835 5.02ZM16.8635 6.34H17.4035L17.7835 6.24L19.4435 7.32C18.7035 8.6 17.3635 10.24 16.3035 11.28C15.8235 10.92 15.0235 10.4 14.5035 10.1C15.4235 9.18 16.4635 7.7 16.8635 6.8V6.34ZM16.9435 21.4L18.9035 20.12C20.9235 20.88 23.3035 21.9 24.6835 22.6L21.9835 23.82C20.8835 23.14 18.8635 22.16 16.9435 21.4ZM12.1635 20.12L14.4835 21.18C12.8435 22.26 10.2835 23.3 8.2835 23.9C7.8435 23.4 6.9635 22.46 6.4035 22.02C8.4635 21.62 10.8035 20.88 12.1635 20.12Z" fill="#ED0000"/>
</svg>
