<svg width="21" height="21" viewBox="0 0 21 21" fill="none" xmlns="http://www.w3.org/2000/svg">
<circle cx="10.1298" cy="10.6412" r="10" fill="#AA69CB"/>
<path d="M9.18103 12.5958H11.2719L12.3231 13.9481L13.3572 15.1526L15.306 17.5958H13.0106L11.6697 15.9481L10.9822 14.9708L9.18103 12.5958ZM15.4822 10.8231C15.4822 12.092 15.2416 13.1715 14.7606 14.0617C14.2833 14.9518 13.6318 15.6318 12.806 16.1015C11.9841 16.5674 11.0598 16.8003 10.0333 16.8003C8.99921 16.8003 8.07118 16.5655 7.24921 16.0958C6.42724 15.6261 5.77762 14.9462 5.30035 14.056C4.82307 13.1659 4.58444 12.0882 4.58444 10.8231C4.58444 9.55411 4.82307 8.47457 5.30035 7.58442C5.77762 6.69427 6.42724 6.01624 7.24921 5.55033C8.07118 5.08063 8.99921 4.84578 10.0333 4.84578C11.0598 4.84578 11.9841 5.08063 12.806 5.55033C13.6318 6.01624 14.2833 6.69427 14.7606 7.58442C15.2416 8.47457 15.4822 9.55411 15.4822 10.8231ZM12.9878 10.8231C12.9878 10.0011 12.8647 9.3079 12.6185 8.74351C12.3761 8.17911 12.0333 7.75108 11.5901 7.45942C11.1469 7.16775 10.628 7.02192 10.0333 7.02192C9.4386 7.02192 8.91966 7.16775 8.47648 7.45942C8.0333 7.75108 7.6886 8.17911 7.44239 8.74351C7.19997 9.3079 7.07875 10.0011 7.07875 10.8231C7.07875 11.645 7.19997 12.3382 7.44239 12.9026C7.6886 13.467 8.0333 13.895 8.47648 14.1867C8.91966 14.4784 9.4386 14.6242 10.0333 14.6242C10.628 14.6242 11.1469 14.4784 11.5901 14.1867C12.0333 13.895 12.3761 13.467 12.6185 12.9026C12.8647 12.3382 12.9878 11.645 12.9878 10.8231Z" fill="white"/>
</svg>
