<svg width="24" height="24" viewBox="0 0 24 24" fill="none" xmlns="http://www.w3.org/2000/svg">
<path d="M5.06046 3C4.63046 3 4.22046 3.14 3.84046 3.42C3.46046 3.7 3.24046 4.06 3.14046 4.5L2.11046 8.91C1.86046 10 2.06046 10.92 2.69046 11.73C2.81046 11.85 2.93046 11.97 3.04046 12.07C3.63046 12.64 4.28046 13 5.22046 13C6.16046 13 6.91046 12.59 7.47046 12.05C8.10046 12.67 8.86046 13 9.80046 13C10.6405 13 11.4405 12.63 12.0005 12.07C12.6805 12.7 13.4505 13 14.3005 13C15.1705 13 15.9105 12.67 16.5405 12.05C17.1105 12.62 17.8605 13 18.8105 13C19.7605 13 20.4305 12.65 21.0005 12.06C21.0905 11.97 21.1805 11.87 21.2805 11.77C21.9405 10.95 22.1405 10 21.8905 8.91L20.8605 4.5C20.7305 4.06 20.5005 3.7 20.1305 3.42C19.7705 3.14 19.3805 3 18.9405 3M18.8905 4.97L19.9705 9.38C20.0605 9.81 19.9705 10.2 19.6905 10.55C19.4405 10.86 19.1305 11 18.7505 11C18.4405 11 18.1705 10.9 17.9505 10.66C17.7305 10.43 17.6105 10.16 17.5805 9.84L16.9705 5M5.06046 5H7.03046L6.42046 9.84C6.30046 10.63 5.91046 11 5.25046 11C4.84046 11 4.53046 10.86 4.31046 10.55C4.03046 10.2 3.94046 9.81 4.03046 9.38M9.05046 5H11.0005V9.7C11.0005 10.05 10.8905 10.35 10.6405 10.62C10.3905 10.88 10.0805 11 9.70046 11C9.36046 11 9.07046 10.88 8.84046 10.59C8.61046 10.3 8.50046 10 8.50046 9.66V9.5M13.0005 5H14.9505L15.5005 9.5C15.5805 9.92 15.5005 10.27 15.2105 10.57C14.9505 10.87 14.6105 11 14.2005 11C13.8905 11 13.6105 10.88 13.3605 10.62C13.1105 10.35 13.0005 10.05 13.0005 9.7M3.00046 14.03V19C3.00046 20.11 3.89046 21 5.00046 21C9.67046 21 14.3305 21 19.0005 21C20.1005 21 21.0005 20.11 21.0005 19V14.05C20.4505 14.63 19.7505 14.96 19.0005 15C18.0005 15.03 17.2505 14.74 16.5405 14.05C15.9405 14.65 15.1405 15 14.3005 15C13.4005 15 12.6005 14.64 12.0005 14.07C11.4305 14.64 10.6505 15 9.78046 15C8.87046 15 8.07046 14.65 7.47046 14.05C6.89046 14.64 6.10046 15 5.23046 15C4.33046 15 3.66046 14.65 3.00046 14.03Z" fill="#808080"/>
</svg>
