<svg width="24" height="25" viewBox="0 0 24 25" fill="none" xmlns="http://www.w3.org/2000/svg">
<path d="M5.06046 3.5C4.63046 3.5 4.22046 3.64 3.84046 3.92C3.46046 4.2 3.24046 4.56 3.14046 5L2.11046 9.41C1.86046 10.5 2.06046 11.42 2.69046 12.23C2.81046 12.35 2.93046 12.47 3.04046 12.57C3.63046 13.14 4.28046 13.5 5.22046 13.5C6.16046 13.5 6.91046 13.09 7.47046 12.55C8.10046 13.17 8.86046 13.5 9.80046 13.5C10.6405 13.5 11.4405 13.13 12.0005 12.57C12.6805 13.2 13.4505 13.5 14.3005 13.5C15.1705 13.5 15.9105 13.17 16.5405 12.55C17.1105 13.12 17.8605 13.5 18.8105 13.5C19.7605 13.5 20.4305 13.15 21.0005 12.56C21.0905 12.47 21.1805 12.37 21.2805 12.27C21.9405 11.45 22.1405 10.5 21.8905 9.41L20.8605 5C20.7305 4.56 20.5005 4.2 20.1305 3.92C19.7705 3.64 19.3805 3.5 18.9405 3.5M18.8905 5.47L19.9705 9.88C20.0605 10.31 19.9705 10.7 19.6905 11.05C19.4405 11.36 19.1305 11.5 18.7505 11.5C18.4405 11.5 18.1705 11.4 17.9505 11.16C17.7305 10.93 17.6105 10.66 17.5805 10.34L16.9705 5.5M5.06046 5.5H7.03046L6.42046 10.34C6.30046 11.13 5.91046 11.5 5.25046 11.5C4.84046 11.5 4.53046 11.36 4.31046 11.05C4.03046 10.7 3.94046 10.31 4.03046 9.88M9.05046 5.5H11.0005V10.2C11.0005 10.55 10.8905 10.85 10.6405 11.12C10.3905 11.38 10.0805 11.5 9.70046 11.5C9.36046 11.5 9.07046 11.38 8.84046 11.09C8.61046 10.8 8.50046 10.5 8.50046 10.16V10M13.0005 5.5H14.9505L15.5005 10C15.5805 10.42 15.5005 10.77 15.2105 11.07C14.9505 11.37 14.6105 11.5 14.2005 11.5C13.8905 11.5 13.6105 11.38 13.3605 11.12C13.1105 10.85 13.0005 10.55 13.0005 10.2M3.00046 14.53V19.5C3.00046 20.61 3.89046 21.5 5.00046 21.5C9.67046 21.5 14.3305 21.5 19.0005 21.5C20.1005 21.5 21.0005 20.61 21.0005 19.5V14.55C20.4505 15.13 19.7505 15.46 19.0005 15.5C18.0005 15.53 17.2505 15.24 16.5405 14.55C15.9405 15.15 15.1405 15.5 14.3005 15.5C13.4005 15.5 12.6005 15.14 12.0005 14.57C11.4305 15.14 10.6505 15.5 9.78046 15.5C8.87046 15.5 8.07046 15.15 7.47046 14.55C6.89046 15.14 6.10046 15.5 5.23046 15.5C4.33046 15.5 3.66046 15.15 3.00046 14.53Z" fill="#CDCDCD"/>
</svg>
