<svg width="32" height="32" viewBox="0 0 32 32" fill="none" xmlns="http://www.w3.org/2000/svg">
<circle cx="15.7915" cy="16" r="15.25" fill="#D9D9D9" stroke="#ED0000" stroke-width="0.5"/>
<mask id="path-2-outside-1_7529_330" maskUnits="userSpaceOnUse" x="4.7915" y="5" width="22" height="21" fill="black">
<rect fill="white" x="4.7915" y="5" width="22" height="21"/>
<path d="M8.4315 6.72H12.4315V8.88H8.4315V6.72ZM13.8315 9.44H24.6915V11.36H13.8315V9.44ZM13.4515 12.74H25.0315V14.68H13.4515V12.74ZM14.7915 17.44H21.9515V19.38H14.7915V17.44ZM8.2915 11.28H11.9515V13.46H8.2915V11.28ZM8.2915 15.94H11.9715V18.16H8.2915V15.94ZM7.4115 6.72H9.4315V13.98C9.4315 17.14 9.2715 21.78 8.0915 24.76C7.6915 24.42 6.7715 23.92 6.2515 23.74C7.3315 20.96 7.4115 16.92 7.4115 13.98V6.72ZM10.9715 6.72H13.0715V22.3C13.0715 23.3 12.9315 23.96 12.3515 24.34C11.7515 24.72 10.9915 24.78 9.8315 24.76C9.7715 24.18 9.5115 23.16 9.2315 22.56C9.8315 22.6 10.4715 22.6 10.6715 22.58C10.8915 22.58 10.9715 22.5 10.9715 22.24V6.72ZM21.6115 10.46C22.2515 13.18 23.5515 15.74 25.5715 16.94C25.0715 17.36 24.3715 18.2 24.0315 18.8C21.7715 17.22 20.4515 14.26 19.7115 10.86L21.6115 10.46ZM21.9115 6.18L24.1115 6.82C23.5515 7.86 22.9515 8.92 22.4515 9.62L20.6315 9.02C21.0715 8.24 21.6315 7.04 21.9115 6.18ZM17.5515 15.6H19.7315C19.5115 19.92 18.8515 23.06 14.7115 24.82C14.4715 24.26 13.8715 23.4 13.3715 22.98C16.9915 21.62 17.3715 19.14 17.5515 15.6ZM17.7115 6L19.8915 6.22C19.1515 11.98 17.5315 16.22 13.9315 18.84C13.6915 18.38 12.9915 17.42 12.5315 17C15.7915 14.84 17.1715 11.04 17.7115 6ZM21.2915 17.44H23.5315C23.5315 17.44 23.5115 17.98 23.4915 18.26C23.3115 21.86 23.0915 23.38 22.5915 23.96C22.2115 24.42 21.7715 24.58 21.2315 24.66C20.7315 24.72 19.8915 24.74 19.0115 24.7C18.9715 24.08 18.7515 23.26 18.4315 22.72C19.1315 22.78 19.7915 22.8 20.0915 22.8C20.3515 22.8 20.5115 22.76 20.6915 22.6C20.9715 22.26 21.1515 21 21.2915 17.74V17.44ZM13.9915 6.9L15.7915 6.3C16.2715 7.1 16.7315 8.18 16.9115 8.88L14.9915 9.58C14.8515 8.84 14.4315 7.72 13.9915 6.9Z"/>
</mask>
<path d="M8.4315 6.72H12.4315V8.88H8.4315V6.72ZM13.8315 9.44H24.6915V11.36H13.8315V9.44ZM13.4515 12.74H25.0315V14.68H13.4515V12.74ZM14.7915 17.44H21.9515V19.38H14.7915V17.44ZM8.2915 11.28H11.9515V13.46H8.2915V11.28ZM8.2915 15.94H11.9715V18.16H8.2915V15.94ZM7.4115 6.72H9.4315V13.98C9.4315 17.14 9.2715 21.78 8.0915 24.76C7.6915 24.42 6.7715 23.92 6.2515 23.74C7.3315 20.96 7.4115 16.92 7.4115 13.98V6.72ZM10.9715 6.72H13.0715V22.3C13.0715 23.3 12.9315 23.96 12.3515 24.34C11.7515 24.72 10.9915 24.78 9.8315 24.76C9.7715 24.18 9.5115 23.16 9.2315 22.56C9.8315 22.6 10.4715 22.6 10.6715 22.58C10.8915 22.58 10.9715 22.5 10.9715 22.24V6.72ZM21.6115 10.46C22.2515 13.18 23.5515 15.74 25.5715 16.94C25.0715 17.36 24.3715 18.2 24.0315 18.8C21.7715 17.22 20.4515 14.26 19.7115 10.86L21.6115 10.46ZM21.9115 6.18L24.1115 6.82C23.5515 7.86 22.9515 8.92 22.4515 9.62L20.6315 9.02C21.0715 8.24 21.6315 7.04 21.9115 6.18ZM17.5515 15.6H19.7315C19.5115 19.92 18.8515 23.06 14.7115 24.82C14.4715 24.26 13.8715 23.4 13.3715 22.98C16.9915 21.62 17.3715 19.14 17.5515 15.6ZM17.7115 6L19.8915 6.22C19.1515 11.98 17.5315 16.22 13.9315 18.84C13.6915 18.38 12.9915 17.42 12.5315 17C15.7915 14.84 17.1715 11.04 17.7115 6ZM21.2915 17.44H23.5315C23.5315 17.44 23.5115 17.98 23.4915 18.26C23.3115 21.86 23.0915 23.38 22.5915 23.96C22.2115 24.42 21.7715 24.58 21.2315 24.66C20.7315 24.72 19.8915 24.74 19.0115 24.7C18.9715 24.08 18.7515 23.26 18.4315 22.72C19.1315 22.78 19.7915 22.8 20.0915 22.8C20.3515 22.8 20.5115 22.76 20.6915 22.6C20.9715 22.26 21.1515 21 21.2915 17.74V17.44ZM13.9915 6.9L15.7915 6.3C16.2715 7.1 16.7315 8.18 16.9115 8.88L14.9915 9.58C14.8515 8.84 14.4315 7.72 13.9915 6.9Z" fill="#E9EEF2"/>
<path d="M8.4315 6.72V6.22H7.9315V6.72H8.4315ZM12.4315 6.72H12.9315V6.22H12.4315V6.72ZM12.4315 8.88V9.38H12.9315V8.88H12.4315ZM8.4315 8.88H7.9315V9.38H8.4315V8.88ZM13.8315 9.44V8.94H13.3315V9.44H13.8315ZM24.6915 9.44H25.1915V8.94H24.6915V9.44ZM24.6915 11.36V11.86H25.1915V11.36H24.6915ZM13.8315 11.36H13.3315V11.86H13.8315V11.36ZM13.4515 12.74V12.24H12.9515V12.74H13.4515ZM25.0315 12.74H25.5315V12.24H25.0315V12.74ZM25.0315 14.68V15.18H25.5315V14.68H25.0315ZM13.4515 14.68H12.9515V15.18H13.4515V14.68ZM14.7915 17.44V16.94H14.2915V17.44H14.7915ZM21.9515 17.44H22.4515V16.94H21.9515V17.44ZM21.9515 19.38V19.88H22.4515V19.38H21.9515ZM14.7915 19.38H14.2915V19.88H14.7915V19.38ZM8.2915 11.28V10.78H7.7915V11.28H8.2915ZM11.9515 11.28H12.4515V10.78H11.9515V11.28ZM11.9515 13.46V13.96H12.4515V13.46H11.9515ZM8.2915 13.46H7.7915V13.96H8.2915V13.46ZM8.2915 15.94V15.44H7.7915V15.94H8.2915ZM11.9715 15.94H12.4715V15.44H11.9715V15.94ZM11.9715 18.16V18.66H12.4715V18.16H11.9715ZM8.2915 18.16H7.7915V18.66H8.2915V18.16ZM7.4115 6.72V6.22H6.9115V6.72H7.4115ZM9.4315 6.72H9.9315V6.22H9.4315V6.72ZM8.0915 24.76L7.76768 25.141L8.29944 25.593L8.55639 24.9441L8.0915 24.76ZM6.2515 23.74L5.78544 23.5589L5.59749 24.0427L6.08795 24.2125L6.2515 23.74ZM10.9715 6.72V6.22H10.4715V6.72H10.9715ZM13.0715 6.72H13.5715V6.22H13.0715V6.72ZM12.3515 24.34L12.6191 24.7625L12.6255 24.7582L12.3515 24.34ZM9.8315 24.76L9.33416 24.8114L9.37976 25.2523L9.82288 25.2599L9.8315 24.76ZM9.2315 22.56L9.26476 22.0611L8.42066 22.0048L8.77841 22.7714L9.2315 22.56ZM10.6715 22.58V22.08H10.6466L10.6218 22.0825L10.6715 22.58ZM21.6115 10.46L22.0982 10.3455L21.9864 9.87012L21.5085 9.97072L21.6115 10.46ZM25.5715 16.94L25.8931 17.3229L26.4324 16.8698L25.8269 16.5101L25.5715 16.94ZM24.0315 18.8L23.745 19.2098L24.1955 19.5247L24.4665 19.0465L24.0315 18.8ZM19.7115 10.86L19.6085 10.3707L19.1159 10.4744L19.2229 10.9663L19.7115 10.86ZM21.9115 6.18L22.0512 5.6999L21.586 5.56459L21.4361 6.02521L21.9115 6.18ZM24.1115 6.82L24.5517 7.05705L24.8449 6.51262L24.2512 6.3399L24.1115 6.82ZM22.4515 9.62L22.295 10.0949L22.6445 10.2101L22.8584 9.91062L22.4515 9.62ZM20.6315 9.02L20.196 8.77434L19.897 9.30434L20.475 9.49486L20.6315 9.02ZM17.5515 15.6V15.1H17.0763L17.0521 15.5746L17.5515 15.6ZM19.7315 15.6L20.2309 15.6254L20.2576 15.1H19.7315V15.6ZM14.7115 24.82L14.2519 25.017L14.4483 25.4752L14.9071 25.2801L14.7115 24.82ZM13.3715 22.98L13.1957 22.5119L12.395 22.8127L13.0499 23.3629L13.3715 22.98ZM17.7115 6L17.7617 5.50253L17.2673 5.45263L17.2143 5.94673L17.7115 6ZM19.8915 6.22L20.3874 6.28371L20.4529 5.77411L19.9417 5.72253L19.8915 6.22ZM13.9315 18.84L13.4882 19.0713L13.7566 19.5857L14.2257 19.2443L13.9315 18.84ZM12.5315 17L12.2553 16.5832L11.7211 16.9371L12.1944 17.3692L12.5315 17ZM21.2915 17.44V16.94H20.7915V17.44H21.2915ZM23.5315 17.44L24.0312 17.4585L24.0504 16.94H23.5315V17.44ZM23.4915 18.26L22.9927 18.2244L22.9921 18.235L23.4915 18.26ZM22.5915 23.96L22.2127 23.6335L22.206 23.6416L22.5915 23.96ZM21.2315 24.66L21.2911 25.1566L21.3048 25.1546L21.2315 24.66ZM19.0115 24.7L18.5125 24.7322L18.5414 25.1791L18.9888 25.1995L19.0115 24.7ZM18.4315 22.72L18.4742 22.2218L17.5059 22.1388L18.0014 22.9749L18.4315 22.72ZM20.6915 22.6L21.0237 22.9737L21.0528 22.9479L21.0775 22.9179L20.6915 22.6ZM21.2915 17.74L21.791 17.7615L21.7915 17.7507V17.74H21.2915ZM13.9915 6.9L13.8334 6.42566L13.2703 6.61336L13.5509 7.13641L13.9915 6.9ZM15.7915 6.3L16.2203 6.04275L16.0139 5.69882L15.6334 5.82566L15.7915 6.3ZM16.9115 8.88L17.0828 9.34975L17.5086 9.19449L17.3958 8.75548L16.9115 8.88ZM14.9915 9.58L14.5002 9.67295L14.6097 10.2514L15.1628 10.0498L14.9915 9.58ZM8.4315 7.22H12.4315V6.22H8.4315V7.22ZM11.9315 6.72V8.88H12.9315V6.72H11.9315ZM12.4315 8.38H8.4315V9.38H12.4315V8.38ZM8.9315 8.88V6.72H7.9315V8.88H8.9315ZM13.8315 9.94H24.6915V8.94H13.8315V9.94ZM24.1915 9.44V11.36H25.1915V9.44H24.1915ZM24.6915 10.86H13.8315V11.86H24.6915V10.86ZM14.3315 11.36V9.44H13.3315V11.36H14.3315ZM13.4515 13.24H25.0315V12.24H13.4515V13.24ZM24.5315 12.74V14.68H25.5315V12.74H24.5315ZM25.0315 14.18H13.4515V15.18H25.0315V14.18ZM13.9515 14.68V12.74H12.9515V14.68H13.9515ZM14.7915 17.94H21.9515V16.94H14.7915V17.94ZM21.4515 17.44V19.38H22.4515V17.44H21.4515ZM21.9515 18.88H14.7915V19.88H21.9515V18.88ZM15.2915 19.38V17.44H14.2915V19.38H15.2915ZM8.2915 11.78H11.9515V10.78H8.2915V11.78ZM11.4515 11.28V13.46H12.4515V11.28H11.4515ZM11.9515 12.96H8.2915V13.96H11.9515V12.96ZM8.7915 13.46V11.28H7.7915V13.46H8.7915ZM8.2915 16.44H11.9715V15.44H8.2915V16.44ZM11.4715 15.94V18.16H12.4715V15.94H11.4715ZM11.9715 17.66H8.2915V18.66H11.9715V17.66ZM8.7915 18.16V15.94H7.7915V18.16H8.7915ZM7.4115 7.22H9.4315V6.22H7.4115V7.22ZM8.9315 6.72V13.98H9.9315V6.72H8.9315ZM8.9315 13.98C8.9315 17.1539 8.76606 21.6984 7.62662 24.5759L8.55639 24.9441C9.77695 21.8616 9.9315 17.1261 9.9315 13.98H8.9315ZM8.41533 24.379C8.17692 24.1764 7.81227 23.9473 7.45771 23.752C7.10047 23.5553 6.71271 23.3705 6.41506 23.2675L6.08795 24.2125C6.31029 24.2895 6.64254 24.4447 6.9753 24.628C7.31074 24.8127 7.60608 25.0036 7.76768 25.141L8.41533 24.379ZM6.71757 23.9211C7.83747 21.0384 7.9115 16.9006 7.9115 13.98H6.9115C6.9115 16.9394 6.82554 20.8816 5.78544 23.5589L6.71757 23.9211ZM7.9115 13.98V6.72H6.9115V13.98H7.9115ZM10.9715 7.22H13.0715V6.22H10.9715V7.22ZM12.5715 6.72V22.3H13.5715V6.72H12.5715ZM12.5715 22.3C12.5715 23.2968 12.4191 23.698 12.0775 23.9218L12.6255 24.7582C13.4439 24.222 13.5715 23.3032 13.5715 22.3H12.5715ZM12.084 23.9176C11.6256 24.2079 11.0107 24.2803 9.84012 24.2601L9.82288 25.2599C10.9723 25.2797 11.8774 25.2321 12.619 24.7624L12.084 23.9176ZM10.3288 24.7086C10.2637 24.0792 9.99063 23.0043 9.6846 22.3486L8.77841 22.7714C9.03238 23.3157 9.27926 24.2808 9.33416 24.8114L10.3288 24.7086ZM9.19824 23.0589C9.8057 23.0994 10.479 23.1017 10.7213 23.0775L10.6218 22.0825C10.464 22.0983 9.85731 22.1006 9.26476 22.0611L9.19824 23.0589ZM10.6715 23.08C10.8186 23.08 11.0799 23.0583 11.2748 22.843C11.4553 22.6434 11.4715 22.391 11.4715 22.24H10.4715C10.4715 22.2831 10.4678 22.2925 10.4703 22.2824C10.4736 22.2691 10.4878 22.2222 10.5332 22.172C10.581 22.1193 10.6345 22.0945 10.6672 22.0846C10.6932 22.0768 10.7005 22.08 10.6715 22.08V23.08ZM11.4715 22.24V6.72H10.4715V22.24H11.4715ZM21.1248 10.5745C21.7762 13.3428 23.1218 16.0663 25.3161 17.3699L25.8269 16.5101C23.9812 15.4137 22.7268 13.0172 22.0982 10.3455L21.1248 10.5745ZM25.2499 16.5571C24.7036 17.016 23.9654 17.9024 23.5965 18.5535L24.4665 19.0465C24.7776 18.4976 25.4394 17.704 25.8931 17.3229L25.2499 16.5571ZM24.318 18.3902C22.2165 16.921 20.9324 14.1183 20.2001 10.7537L19.2229 10.9663C19.9706 14.4017 21.3265 17.519 23.745 19.2098L24.318 18.3902ZM19.8145 11.3493L21.7145 10.9493L21.5085 9.97072L19.6085 10.3707L19.8145 11.3493ZM21.7718 6.6601L23.9718 7.3001L24.2512 6.3399L22.0512 5.6999L21.7718 6.6601ZM23.6713 6.58295C23.1107 7.62402 22.5241 8.65818 22.0446 9.32938L22.8584 9.91062C23.3789 9.18181 23.9923 8.09598 24.5517 7.05705L23.6713 6.58295ZM22.6081 9.14514L20.7881 8.54514L20.475 9.49486L22.295 10.0949L22.6081 9.14514ZM21.067 9.26566C21.5187 8.46498 22.0941 7.23418 22.3869 6.33479L21.4361 6.02521C21.1689 6.84582 20.6243 8.01502 20.196 8.77434L21.067 9.26566ZM17.5515 16.1H19.7315V15.1H17.5515V16.1ZM19.2322 15.5746C19.1224 17.7299 18.9039 19.5103 18.2372 20.9612C17.5838 22.383 16.4821 23.524 14.5159 24.3599L14.9071 25.2801C17.0809 24.356 18.3792 23.047 19.1458 21.3788C19.8991 19.7397 20.1206 17.7901 20.2309 15.6254L19.2322 15.5746ZM15.1711 24.623C15.0322 24.2991 14.8009 23.9118 14.5451 23.5557C14.2901 23.2009 13.9874 22.8443 13.6931 22.5971L13.0499 23.3629C13.2556 23.5357 13.5029 23.8191 13.733 24.1393C13.9621 24.4582 14.1508 24.7809 14.2519 25.017L15.1711 24.623ZM13.5473 23.4481C15.4596 22.7296 16.5715 21.6878 17.2053 20.3174C17.8213 18.9854 17.9613 17.3871 18.0509 15.6254L17.0521 15.5746C16.9617 17.3529 16.8217 18.7646 16.2977 19.8976C15.7915 20.9922 14.9034 21.8704 13.1957 22.5119L13.5473 23.4481ZM17.6613 6.49747L19.8413 6.71747L19.9417 5.72253L17.7617 5.50253L17.6613 6.49747ZM19.3956 6.15629C18.6614 11.871 17.0689 15.9383 13.6373 18.4357L14.2257 19.2443C17.9941 16.5017 19.6416 12.089 20.3874 6.28371L19.3956 6.15629ZM14.3748 18.6087C14.2364 18.3435 13.9829 17.9635 13.714 17.605C13.4457 17.2473 13.1335 16.8726 12.8686 16.6308L12.1944 17.3692C12.3895 17.5474 12.6573 17.8627 12.914 18.205C13.1701 18.5465 13.3866 18.8765 13.4882 19.0713L14.3748 18.6087ZM12.8077 17.4168C16.2599 15.1294 17.6643 11.1342 18.2087 6.05327L17.2143 5.94673C16.6787 10.9458 15.3231 14.5506 12.2553 16.5832L12.8077 17.4168ZM21.2915 17.94H23.5315V16.94H21.2915V17.94ZM23.5315 17.44C23.0318 17.4215 23.0318 17.4215 23.0318 17.4215C23.0318 17.4215 23.0318 17.4215 23.0318 17.4215C23.0318 17.4215 23.0318 17.4215 23.0318 17.4216C23.0318 17.4216 23.0318 17.4217 23.0318 17.4218C23.0318 17.4221 23.0318 17.4224 23.0318 17.4229C23.0318 17.4239 23.0317 17.4254 23.0316 17.4273C23.0315 17.4313 23.0313 17.4371 23.031 17.4446C23.0304 17.4597 23.0295 17.4817 23.0285 17.5089C23.0263 17.5634 23.0232 17.6389 23.0195 17.723C23.012 17.893 23.0022 18.0919 22.9928 18.2244L23.9902 18.2956C24.0008 18.1481 24.011 17.937 24.0185 17.767C24.0223 17.6811 24.0255 17.6041 24.0277 17.5486C24.0288 17.5208 24.0296 17.4984 24.0302 17.4829C24.0305 17.4751 24.0308 17.4691 24.0309 17.4649C24.031 17.4629 24.0311 17.4613 24.0311 17.4602C24.0311 17.4597 24.0311 17.4593 24.0311 17.459C24.0311 17.4588 24.0312 17.4587 24.0312 17.4586C24.0312 17.4586 24.0312 17.4586 24.0312 17.4585C24.0312 17.4585 24.0312 17.4585 24.0312 17.4585C24.0312 17.4585 24.0312 17.4585 23.5315 17.44ZM22.9921 18.235C22.9022 20.034 22.8031 21.2913 22.6674 22.1659C22.5278 23.0655 22.3616 23.4609 22.2128 23.6335L22.9702 24.2865C23.3214 23.8791 23.5152 23.2245 23.6556 22.3191C23.7999 21.3887 23.9008 20.086 23.9909 18.285L22.9921 18.235ZM22.206 23.6416C21.9329 23.9722 21.6282 24.0958 21.1582 24.1654L21.3048 25.1546C21.9148 25.0642 22.4901 24.8678 22.977 24.2784L22.206 23.6416ZM21.1719 24.1636C20.7096 24.219 19.8996 24.2399 19.0342 24.2005L18.9888 25.1995C19.8834 25.2401 20.7534 25.221 21.2911 25.1564L21.1719 24.1636ZM19.5105 24.6678C19.4664 23.9845 19.229 23.0849 18.8617 22.4651L18.0014 22.9749C18.2741 23.4351 18.4766 24.1755 18.5125 24.7322L19.5105 24.6678ZM18.3888 23.2182C19.1028 23.2794 19.777 23.3 20.0915 23.3V22.3C19.806 22.3 19.1602 22.2806 18.4742 22.2218L18.3888 23.2182ZM20.0915 23.3C20.2434 23.3 20.4067 23.289 20.5721 23.2368C20.7454 23.1821 20.8906 23.092 21.0237 22.9737L20.3593 22.2263C20.3124 22.268 20.2877 22.2779 20.2709 22.2832C20.2463 22.291 20.1996 22.3 20.0915 22.3V23.3ZM21.0775 22.9179C21.2166 22.7489 21.3027 22.5223 21.3665 22.2857C21.4333 22.0376 21.4899 21.7212 21.54 21.3282C21.6403 20.5414 21.7209 19.394 21.791 17.7615L20.792 17.7185C20.7221 19.346 20.6427 20.4586 20.548 21.2018C20.5006 21.5738 20.4509 21.8399 20.4009 22.0255C20.3761 22.1177 20.353 22.1829 20.3336 22.2274C20.3137 22.2731 20.3023 22.2861 20.3055 22.2821L21.0775 22.9179ZM21.7915 17.74V17.44H20.7915V17.74H21.7915ZM14.1496 7.37434L15.9496 6.77434L15.6334 5.82566L13.8334 6.42566L14.1496 7.37434ZM15.3628 6.55725C15.8221 7.3228 16.2611 8.3584 16.4273 9.00452L17.3958 8.75548C17.2019 8.0016 16.7209 6.8772 16.2203 6.04275L15.3628 6.55725ZM16.7402 8.41025L14.8202 9.11025L15.1628 10.0498L17.0828 9.34975L16.7402 8.41025ZM15.4828 9.48705C15.3312 8.68576 14.8902 7.5173 14.4321 6.66359L13.5509 7.13641C13.9728 7.9227 14.3718 8.99424 14.5002 9.67295L15.4828 9.48705Z" fill="#ED0000" mask="url(#path-2-outside-1_7529_330)"/>
</svg>
