<svg width="32" height="32" viewBox="0 0 32 32" fill="none" xmlns="http://www.w3.org/2000/svg">
<circle cx="16" cy="16" r="15.25" fill="#D9D9D9" stroke="#ED0000" stroke-width="0.5"/>
<mask id="path-2-outside-1_4721_9605" maskUnits="userSpaceOnUse" x="3" y="10" width="25" height="11" fill="black">
<rect fill="white" x="3" y="10" width="25" height="11"/>
<path d="M7.13903 20L4.64187 11.2727H6.65749L8.1021 17.3366H8.17454L9.76829 11.2727H11.4941L13.0836 17.3494H13.1603L14.6049 11.2727H16.6206L14.1234 20H12.3251L10.6632 14.294H10.595L8.93732 20H7.13903ZM17.574 20V13.4545H19.3894V20H17.574ZM18.486 12.6108C18.2161 12.6108 17.9846 12.5213 17.7914 12.3423C17.601 12.1605 17.5059 11.9432 17.5059 11.6903C17.5059 11.4403 17.601 11.2259 17.7914 11.0469C17.9846 10.8651 18.2161 10.7741 18.486 10.7741C18.7559 10.7741 18.986 10.8651 19.1763 11.0469C19.3695 11.2259 19.4661 11.4403 19.4661 11.6903C19.4661 11.9432 19.3695 12.1605 19.1763 12.3423C18.986 12.5213 18.7559 12.6108 18.486 12.6108ZM22.6589 16.2159V20H20.8436V13.4545H22.5737V14.6094H22.6504C22.7953 14.2287 23.0382 13.9276 23.3791 13.706C23.72 13.4815 24.1333 13.3693 24.6191 13.3693C25.0737 13.3693 25.47 13.4688 25.8081 13.6676C26.1461 13.8665 26.4089 14.1506 26.5964 14.5199C26.7839 14.8864 26.8777 15.3239 26.8777 15.8324V20H25.0623V16.1562C25.0652 15.7557 24.9629 15.4432 24.7555 15.2188C24.5481 14.9915 24.2626 14.8778 23.899 14.8778C23.6547 14.8778 23.4387 14.9304 23.2512 15.0355C23.0666 15.1406 22.9217 15.294 22.8166 15.4957C22.7143 15.6946 22.6618 15.9347 22.6589 16.2159Z"/>
</mask>
<path d="M7.13903 20L4.64187 11.2727H6.65749L8.1021 17.3366H8.17454L9.76829 11.2727H11.4941L13.0836 17.3494H13.1603L14.6049 11.2727H16.6206L14.1234 20H12.3251L10.6632 14.294H10.595L8.93732 20H7.13903ZM17.574 20V13.4545H19.3894V20H17.574ZM18.486 12.6108C18.2161 12.6108 17.9846 12.5213 17.7914 12.3423C17.601 12.1605 17.5059 11.9432 17.5059 11.6903C17.5059 11.4403 17.601 11.2259 17.7914 11.0469C17.9846 10.8651 18.2161 10.7741 18.486 10.7741C18.7559 10.7741 18.986 10.8651 19.1763 11.0469C19.3695 11.2259 19.4661 11.4403 19.4661 11.6903C19.4661 11.9432 19.3695 12.1605 19.1763 12.3423C18.986 12.5213 18.7559 12.6108 18.486 12.6108ZM22.6589 16.2159V20H20.8436V13.4545H22.5737V14.6094H22.6504C22.7953 14.2287 23.0382 13.9276 23.3791 13.706C23.72 13.4815 24.1333 13.3693 24.6191 13.3693C25.0737 13.3693 25.47 13.4688 25.8081 13.6676C26.1461 13.8665 26.4089 14.1506 26.5964 14.5199C26.7839 14.8864 26.8777 15.3239 26.8777 15.8324V20H25.0623V16.1562C25.0652 15.7557 24.9629 15.4432 24.7555 15.2188C24.5481 14.9915 24.2626 14.8778 23.899 14.8778C23.6547 14.8778 23.4387 14.9304 23.2512 15.0355C23.0666 15.1406 22.9217 15.294 22.8166 15.4957C22.7143 15.6946 22.6618 15.9347 22.6589 16.2159Z" fill="#E9EEF2"/>
<path d="M7.13903 20L6.65832 20.1375L6.76203 20.5H7.13903V20ZM4.64187 11.2727V10.7727H3.97874L4.16116 11.4103L4.64187 11.2727ZM6.65749 11.2727L7.14388 11.1569L7.05237 10.7727H6.65749V11.2727ZM8.1021 17.3366L7.61571 17.4525L7.70722 17.8366H8.1021V17.3366ZM8.17454 17.3366V17.8366H8.56011L8.65812 17.4637L8.17454 17.3366ZM9.76829 11.2727V10.7727H9.38272L9.28471 11.1456L9.76829 11.2727ZM11.4941 11.2727L11.9779 11.1462L11.8802 10.7727H11.4941V11.2727ZM13.0836 17.3494L12.5999 17.476L12.6976 17.8494H13.0836V17.3494ZM13.1603 17.3494V17.8494H13.5554L13.6468 17.4651L13.1603 17.3494ZM14.6049 11.2727V10.7727H14.2099L14.1185 11.1571L14.6049 11.2727ZM16.6206 11.2727L17.1013 11.4103L17.2837 10.7727H16.6206V11.2727ZM14.1234 20V20.5H14.5004L14.6041 20.1375L14.1234 20ZM12.3251 20L11.8451 20.1398L11.95 20.5H12.3251V20ZM10.6632 14.294L11.1432 14.1542L11.0383 13.794H10.6632V14.294ZM10.595 14.294V13.794H10.2196L10.1148 14.1545L10.595 14.294ZM8.93732 20V20.5H9.31274L9.41747 20.1395L8.93732 20ZM7.61974 19.8625L5.12258 11.1352L4.16116 11.4103L6.65832 20.1375L7.61974 19.8625ZM4.64187 11.7727H6.65749V10.7727H4.64187V11.7727ZM6.1711 11.3886L7.61571 17.4525L8.58848 17.2208L7.14388 11.1569L6.1711 11.3886ZM8.1021 17.8366H8.17454V16.8366H8.1021V17.8366ZM8.65812 17.4637L10.2519 11.3998L9.28471 11.1456L7.69096 17.2096L8.65812 17.4637ZM9.76829 11.7727H11.4941V10.7727H9.76829V11.7727ZM11.0104 11.3993L12.5999 17.476L13.5674 17.2229L11.9779 11.1462L11.0104 11.3993ZM13.0836 17.8494H13.1603V16.8494H13.0836V17.8494ZM13.6468 17.4651L15.0914 11.3884L14.1185 11.1571L12.6739 17.2338L13.6468 17.4651ZM14.6049 11.7727H16.6206V10.7727H14.6049V11.7727ZM16.1399 11.1352L13.6427 19.8625L14.6041 20.1375L17.1013 11.4103L16.1399 11.1352ZM14.1234 19.5H12.3251V20.5H14.1234V19.5ZM12.8052 19.8602L11.1432 14.1542L10.1831 14.4339L11.8451 20.1398L12.8052 19.8602ZM10.6632 13.794H10.595V14.794H10.6632V13.794ZM10.1148 14.1545L8.45717 19.8605L9.41747 20.1395L11.0751 14.4335L10.1148 14.1545ZM8.93732 19.5H7.13903V20.5H8.93732V19.5ZM17.574 20H17.074V20.5H17.574V20ZM17.574 13.4545V12.9545H17.074V13.4545H17.574ZM19.3894 13.4545H19.8894V12.9545H19.3894V13.4545ZM19.3894 20V20.5H19.8894V20H19.3894ZM17.7914 12.3423L17.446 12.7039L17.4516 12.7091L17.7914 12.3423ZM17.7914 11.0469L18.1339 11.4111L18.1341 11.411L17.7914 11.0469ZM19.1763 11.0469L18.8309 11.4085L18.8365 11.4137L19.1763 11.0469ZM19.1763 12.3423L19.5188 12.7066L19.519 12.7064L19.1763 12.3423ZM18.074 20V13.4545H17.074V20H18.074ZM17.574 13.9545H19.3894V12.9545H17.574V13.9545ZM18.8894 13.4545V20H19.8894V13.4545H18.8894ZM19.3894 19.5H17.574V20.5H19.3894V19.5ZM18.486 12.1108C18.3386 12.1108 18.2294 12.0666 18.1312 11.9755L17.4516 12.7091C17.7397 12.9761 18.0935 13.1108 18.486 13.1108V12.1108ZM18.1367 11.9808C18.0406 11.8889 18.0059 11.8004 18.0059 11.6903H17.0059C17.0059 12.0859 17.1615 12.4321 17.446 12.7039L18.1367 11.9808ZM18.0059 11.6903C18.0059 11.5851 18.0389 11.5004 18.1339 11.4111L17.4489 10.6826C17.1631 10.9513 17.0059 11.2955 17.0059 11.6903H18.0059ZM18.1341 11.411C18.2327 11.3181 18.341 11.2741 18.486 11.2741V10.2741C18.0912 10.2741 17.7364 10.412 17.4487 10.6828L18.1341 11.411ZM18.486 11.2741C18.6308 11.2741 18.7362 11.3179 18.8309 11.4084L19.5217 10.6853C19.2357 10.4122 18.8809 10.2741 18.486 10.2741V11.2741ZM18.8365 11.4137C18.9337 11.5037 18.9661 11.5877 18.9661 11.6903H19.9661C19.9661 11.293 19.8053 10.948 19.5161 10.6801L18.8365 11.4137ZM18.9661 11.6903C18.9661 11.7979 18.932 11.8857 18.8336 11.9782L19.519 12.7064C19.807 12.4354 19.9661 12.0885 19.9661 11.6903H18.9661ZM18.8338 11.9781C18.7395 12.0667 18.6332 12.1108 18.486 12.1108V13.1108C18.8785 13.1108 19.2324 12.9759 19.5188 12.7066L18.8338 11.9781ZM22.6589 16.2159L22.1589 16.2109V16.2159H22.6589ZM22.6589 20V20.5H23.1589V20H22.6589ZM20.8436 20H20.3436V20.5H20.8436V20ZM20.8436 13.4545V12.9545H20.3436V13.4545H20.8436ZM22.5737 13.4545H23.0737V12.9545H22.5737V13.4545ZM22.5737 14.6094H22.0737V15.1094H22.5737V14.6094ZM22.6504 14.6094V15.1094H22.9951L23.1177 14.7872L22.6504 14.6094ZM23.3791 13.706L23.6516 14.1252L23.654 14.1236L23.3791 13.706ZM26.5964 14.5199L26.1506 14.7462L26.1513 14.7476L26.5964 14.5199ZM26.8777 20V20.5H27.3777V20H26.8777ZM25.0623 20H24.5623V20.5H25.0623V20ZM25.0623 16.1562L24.5623 16.1527V16.1562H25.0623ZM24.7555 15.2188L24.3862 15.5558L24.3883 15.5581L24.7555 15.2188ZM23.2512 15.0355L23.0067 14.5994L23.0039 14.601L23.2512 15.0355ZM22.8166 15.4957L22.3732 15.2647L22.3719 15.2671L22.8166 15.4957ZM22.1589 16.2159V20H23.1589V16.2159H22.1589ZM22.6589 19.5H20.8436V20.5H22.6589V19.5ZM21.3436 20V13.4545H20.3436V20H21.3436ZM20.8436 13.9545H22.5737V12.9545H20.8436V13.9545ZM22.0737 13.4545V14.6094H23.0737V13.4545H22.0737ZM22.5737 15.1094H22.6504V14.1094H22.5737V15.1094ZM23.1177 14.7872C23.2249 14.5054 23.3997 14.2889 23.6516 14.1252L23.1066 13.2867C22.6766 13.5662 22.3656 13.952 22.1831 14.4315L23.1177 14.7872ZM23.654 14.1236C23.8988 13.9624 24.2122 13.8693 24.6191 13.8693V12.8693C24.0545 12.8693 23.5411 13.0006 23.1041 13.2883L23.654 14.1236ZM24.6191 13.8693C24.9989 13.8693 25.3048 13.9517 25.5546 14.0986L26.0616 13.2366C25.6352 12.9858 25.1485 12.8693 24.6191 12.8693V13.8693ZM25.5546 14.0986C25.8056 14.2462 26.0038 14.4571 26.1506 14.7462L27.0422 14.2935C26.814 13.844 26.4867 13.4867 26.0616 13.2366L25.5546 14.0986ZM26.1513 14.7476C26.2952 15.0289 26.3777 15.3847 26.3777 15.8324H27.3777C27.3777 15.263 27.2726 14.7438 27.0415 14.2921L26.1513 14.7476ZM26.3777 15.8324V20H27.3777V15.8324H26.3777ZM26.8777 19.5H25.0623V20.5H26.8777V19.5ZM25.5623 20V16.1562H24.5623V20H25.5623ZM25.5623 16.1598C25.5658 15.6729 25.4404 15.2232 25.1227 14.8794L24.3883 15.5581C24.4854 15.6631 24.5646 15.8385 24.5623 16.1527L25.5623 16.1598ZM25.1248 14.8817C24.8054 14.5317 24.3753 14.3778 23.899 14.3778V15.3778C24.15 15.3778 24.2908 15.4513 24.3862 15.5558L25.1248 14.8817ZM23.899 14.3778C23.5809 14.3778 23.2786 14.4469 23.0067 14.5994L23.4957 15.4717C23.5988 15.4139 23.7284 15.3778 23.899 15.3778V14.3778ZM23.0039 14.601C22.7297 14.757 22.5195 14.984 22.3732 15.2647L23.26 15.7268C23.3239 15.6041 23.4034 15.5242 23.4986 15.47L23.0039 14.601ZM22.3719 15.2671C22.2261 15.5507 22.1624 15.8713 22.1589 16.2109L23.1589 16.221C23.1611 15.998 23.2025 15.8385 23.2612 15.7244L22.3719 15.2671Z" fill="#ED0000" mask="url(#path-2-outside-1_4721_9605)"/>
</svg>
