<?xml version="1.0" encoding="utf-8"?>
<!-- Generator: Adobe Illustrator 25.2.3, SVG Export Plug-In . SVG Version: 6.00 Build 0)  -->
<svg version="1.1" id="Layer_1" xmlns="http://www.w3.org/2000/svg" xmlns:xlink="http://www.w3.org/1999/xlink" x="0px" y="0px"
	 viewBox="0 0 96 96" style="enable-background:new 0 0 96 96;" xml:space="preserve">
<style type="text/css">
	.st0{fill-rule:evenodd;clip-rule:evenodd;fill:#FFFFFF;}
</style>
<path class="st0" d="M96,16L82.3,29.7c-5.9-5.4-12.8-9.4-20.3-11.7L64,16H96z M34.1,77.9L32,80H0l13.7-13.7
	C19.6,71.7,26.5,75.7,34.1,77.9z M96,48c-9.6,19.1-27.5,32-48,32c-4.8,0-9.5-0.7-13.9-2.1l48.2-48.2C87.8,34.7,92.5,40.9,96,48z
	 M0,48c9.6-19.1,27.5-32,48-32c4.8,0,9.5,0.7,13.9,2.1L13.7,66.3C8.2,61.3,3.5,55.1,0,48z"/>
</svg>
