<svg width="25" height="24" viewBox="0 0 25 24" fill="none" xmlns="http://www.w3.org/2000/svg">
<mask id="mask0_7524_361" style="mask-type:alpha" maskUnits="userSpaceOnUse" x="0" y="0" width="25" height="24">
<rect x="0.555176" width="24" height="24" fill="#D9D9D9"/>
</mask>
<g mask="url(#mask0_7524_361)">
<path d="M12.5553 22.0001C11.3053 22.0001 10.1344 21.7626 9.04277 21.2876C7.95111 20.8126 7.00111 20.1709 6.19277 19.3626C5.38444 18.5543 4.74277 17.6043 4.26777 16.5126C3.79277 15.4209 3.55527 14.2501 3.55527 13.0001C3.55527 11.7501 3.79277 10.5793 4.26777 9.4876C4.74277 8.39593 5.38444 7.44593 6.19277 6.6376C7.00111 5.82926 7.95111 5.1876 9.04277 4.7126C10.1344 4.2376 11.3053 4.0001 12.5553 4.0001C13.8053 4.0001 14.9761 4.2376 16.0678 4.7126C17.1594 5.1876 18.1094 5.82926 18.9178 6.6376C19.7261 7.44593 20.3678 8.39593 20.8428 9.4876C21.3178 10.5793 21.5553 11.7501 21.5553 13.0001C21.5553 14.2501 21.3178 15.4209 20.8428 16.5126C20.3678 17.6043 19.7261 18.5543 18.9178 19.3626C18.1094 20.1709 17.1594 20.8126 16.0678 21.2876C14.9761 21.7626 13.8053 22.0001 12.5553 22.0001ZM15.3553 17.2001L16.7553 15.8001L13.5553 12.6001V8.0001H11.5553V13.4001L15.3553 17.2001ZM6.15527 2.3501L7.55527 3.7501L3.30527 8.0001L1.90527 6.6001L6.15527 2.3501ZM18.9553 2.3501L23.2053 6.6001L21.8053 8.0001L17.5553 3.7501L18.9553 2.3501Z" fill="#F2A33A"/>
</g>
</svg>
