<svg width="25" height="24" viewBox="0 0 25 24" fill="none" xmlns="http://www.w3.org/2000/svg">
<mask id="mask0_7524_362" style="mask-type:alpha" maskUnits="userSpaceOnUse" x="0" y="0" width="25" height="24">
<rect x="0.777344" width="24" height="24" fill="#D9D9D9"/>
</mask>
<g mask="url(#mask0_7524_362)">
<path d="M1.77734 21L12.7773 2L23.7773 21H1.77734ZM12.7773 18C13.0607 18 13.2982 17.9042 13.4898 17.7125C13.6815 17.5208 13.7773 17.2833 13.7773 17C13.7773 16.7167 13.6815 16.4792 13.4898 16.2875C13.2982 16.0958 13.0607 16 12.7773 16C12.494 16 12.2565 16.0958 12.0648 16.2875C11.8732 16.4792 11.7773 16.7167 11.7773 17C11.7773 17.2833 11.8732 17.5208 12.0648 17.7125C12.2565 17.9042 12.494 18 12.7773 18ZM11.7773 15H13.7773V10H11.7773V15Z" fill="#ED0000"/>
</g>
</svg>
