<svg width="35" height="36" viewBox="0 0 35 36" fill="none" xmlns="http://www.w3.org/2000/svg">
<mask id="mask0_7510_20" style="mask-type:alpha" maskUnits="userSpaceOnUse" x="0" y="0" width="35" height="36">
<rect y="0.5" width="35" height="35" fill="#D9D9D9"/>
</mask>
<g mask="url(#mask0_7510_20)">
<path d="M16.0416 23.8333H18.9583V17.7813L21.2916 20.0417L23.3333 18L17.4999 12.1667L11.6666 18L13.7083 20.0417L16.0416 17.7813V23.8333ZM10.2083 31.125C9.40617 31.125 8.71954 30.8394 8.14836 30.2682C7.57718 29.697 7.29159 29.0104 7.29159 28.2083V9.25H5.83325V6.33333H13.1249V4.875H21.8749V6.33333H29.1666V9.25H27.7083V28.2083C27.7083 29.0104 27.4227 29.697 26.8515 30.2682C26.2803 30.8394 25.5937 31.125 24.7916 31.125H10.2083ZM24.7916 9.25H10.2083V28.2083H24.7916V9.25Z" fill="#1C1B1F"/>
</g>
</svg>
