<svg width="25" height="24" viewBox="0 0 25 24" fill="none" xmlns="http://www.w3.org/2000/svg">
<mask id="mask0_7524_360" style="mask-type:alpha" maskUnits="userSpaceOnUse" x="0" y="0" width="25" height="24">
<rect x="0.333008" width="24" height="24" fill="#D9D9D9"/>
</mask>
<g mask="url(#mask0_7524_360)">
<path d="M11.433 19H13.183V17.75C14.0163 17.6 14.733 17.275 15.333 16.775C15.933 16.275 16.233 15.5333 16.233 14.55C16.233 13.85 16.033 13.2083 15.633 12.625C15.233 12.0417 14.433 11.5333 13.233 11.1C12.233 10.7667 11.5413 10.475 11.158 10.225C10.7747 9.975 10.583 9.63333 10.583 9.2C10.583 8.76667 10.7372 8.425 11.0455 8.175C11.3538 7.925 11.7997 7.8 12.383 7.8C12.9163 7.8 13.333 7.92917 13.633 8.1875C13.933 8.44583 14.1497 8.76667 14.283 9.15L15.883 8.5C15.6997 7.91667 15.3622 7.40833 14.8705 6.975C14.3788 6.54167 13.833 6.3 13.233 6.25V5H11.483V6.25C10.6497 6.43333 9.99967 6.8 9.53301 7.35C9.06634 7.9 8.83301 8.51667 8.83301 9.2C8.83301 9.98333 9.06217 10.6167 9.52051 11.1C9.97884 11.5833 10.6997 12 11.683 12.35C12.733 12.7333 13.4622 13.075 13.8705 13.375C14.2788 13.675 14.483 14.0667 14.483 14.55C14.483 15.1 14.2872 15.5042 13.8955 15.7625C13.5038 16.0208 13.033 16.15 12.483 16.15C11.933 16.15 11.4455 15.9792 11.0205 15.6375C10.5955 15.2958 10.283 14.7833 10.083 14.1L8.43301 14.75C8.66634 15.55 9.02884 16.1958 9.52051 16.6875C10.0122 17.1792 10.6497 17.5167 11.433 17.7V19ZM12.333 22C10.9497 22 9.64967 21.7375 8.43301 21.2125C7.21634 20.6875 6.15801 19.975 5.25801 19.075C4.35801 18.175 3.64551 17.1167 3.12051 15.9C2.59551 14.6833 2.33301 13.3833 2.33301 12C2.33301 10.6167 2.59551 9.31667 3.12051 8.1C3.64551 6.88333 4.35801 5.825 5.25801 4.925C6.15801 4.025 7.21634 3.3125 8.43301 2.7875C9.64967 2.2625 10.9497 2 12.333 2C13.7163 2 15.0163 2.2625 16.233 2.7875C17.4497 3.3125 18.508 4.025 19.408 4.925C20.308 5.825 21.0205 6.88333 21.5455 8.1C22.0705 9.31667 22.333 10.6167 22.333 12C22.333 13.3833 22.0705 14.6833 21.5455 15.9C21.0205 17.1167 20.308 18.175 19.408 19.075C18.508 19.975 17.4497 20.6875 16.233 21.2125C15.0163 21.7375 13.7163 22 12.333 22Z" fill="#F2A33A"/>
</g>
</svg>
