<svg width="25" height="24" viewBox="0 0 25 24" fill="none" xmlns="http://www.w3.org/2000/svg">
<mask id="mask0_7524_359" style="mask-type:alpha" maskUnits="userSpaceOnUse" x="0" y="0" width="25" height="24">
<rect x="0.11084" width="24" height="24" fill="#D9D9D9"/>
</mask>
<g mask="url(#mask0_7524_359)">
<path d="M15.6108 11C16.0275 11 16.3817 10.8542 16.6733 10.5625C16.965 10.2708 17.1108 9.91667 17.1108 9.5C17.1108 9.08333 16.965 8.72917 16.6733 8.4375C16.3817 8.14583 16.0275 8 15.6108 8C15.1942 8 14.84 8.14583 14.5483 8.4375C14.2567 8.72917 14.1108 9.08333 14.1108 9.5C14.1108 9.91667 14.2567 10.2708 14.5483 10.5625C14.84 10.8542 15.1942 11 15.6108 11ZM8.61084 11C9.02751 11 9.38167 10.8542 9.67334 10.5625C9.96501 10.2708 10.1108 9.91667 10.1108 9.5C10.1108 9.08333 9.96501 8.72917 9.67334 8.4375C9.38167 8.14583 9.02751 8 8.61084 8C8.19417 8 7.84001 8.14583 7.54834 8.4375C7.25667 8.72917 7.11084 9.08333 7.11084 9.5C7.11084 9.91667 7.25667 10.2708 7.54834 10.5625C7.84001 10.8542 8.19417 11 8.61084 11ZM12.1108 13.5C10.9775 13.5 9.94834 13.8208 9.02334 14.4625C8.09834 15.1042 7.42751 15.95 7.01084 17H8.66084C9.02751 16.3833 9.51501 15.8958 10.1233 15.5375C10.7317 15.1792 11.3942 15 12.1108 15C12.8275 15 13.49 15.1792 14.0983 15.5375C14.7067 15.8958 15.1942 16.3833 15.5608 17H17.2108C16.7942 15.95 16.1233 15.1042 15.1983 14.4625C14.2733 13.8208 13.2442 13.5 12.1108 13.5ZM12.1108 22C10.7275 22 9.42751 21.7375 8.21084 21.2125C6.99417 20.6875 5.93584 19.975 5.03584 19.075C4.13584 18.175 3.42334 17.1167 2.89834 15.9C2.37334 14.6833 2.11084 13.3833 2.11084 12C2.11084 10.6167 2.37334 9.31667 2.89834 8.1C3.42334 6.88333 4.13584 5.825 5.03584 4.925C5.93584 4.025 6.99417 3.3125 8.21084 2.7875C9.42751 2.2625 10.7275 2 12.1108 2C13.4942 2 14.7942 2.2625 16.0108 2.7875C17.2275 3.3125 18.2858 4.025 19.1858 4.925C20.0858 5.825 20.7983 6.88333 21.3233 8.1C21.8483 9.31667 22.1108 10.6167 22.1108 12C22.1108 13.3833 21.8483 14.6833 21.3233 15.9C20.7983 17.1167 20.0858 18.175 19.1858 19.075C18.2858 19.975 17.2275 20.6875 16.0108 21.2125C14.7942 21.7375 13.4942 22 12.1108 22Z" fill="black"/>
</g>
</svg>
