<svg width="36" height="36" viewBox="0 0 36 36" fill="none" xmlns="http://www.w3.org/2000/svg">
<mask id="mask0_7510_18" style="mask-type:alpha" maskUnits="userSpaceOnUse" x="0" y="0" width="36" height="36">
<rect x="0.0114746" y="0.216431" width="35" height="35" fill="#D9D9D9"/>
</mask>
<g mask="url(#mask0_7510_18)">
<path d="M10.2197 30.8414C9.41764 30.8414 8.73101 30.5558 8.15983 29.9847C7.58865 29.4135 7.30306 28.7268 7.30306 27.9248V8.96643H5.84473V6.04976H13.1364V4.59143H21.8864V6.04976H29.1781V8.96643H27.7197V27.9248C27.7197 28.7268 27.4341 29.4135 26.863 29.9847C26.2918 30.5558 25.6051 30.8414 24.8031 30.8414H10.2197ZM24.8031 8.96643H10.2197V27.9248H24.8031V8.96643ZM13.1364 25.0081H16.0531V11.8831H13.1364V25.0081ZM18.9697 25.0081H21.8864V11.8831H18.9697V25.0081Z" fill="#1C1B1F"/>
</g>
</svg>
