<svg width="35" height="36" viewBox="0 0 35 36" fill="none" xmlns="http://www.w3.org/2000/svg">
<mask id="mask0_7510_17" style="mask-type:alpha" maskUnits="userSpaceOnUse" x="0" y="0" width="35" height="36">
<rect y="0.216431" width="35" height="35" fill="#D9D9D9"/>
</mask>
<g mask="url(#mask0_7510_17)">
<path d="M17.5001 1.6748L30.698 9.5498C31.1355 9.81717 31.4758 10.1817 31.7188 10.6436C31.9619 11.1054 32.0834 11.5915 32.0834 12.1019V27.9248C32.0834 28.7269 31.7978 29.4135 31.2266 29.9847C30.6555 30.5559 29.9688 30.8415 29.1667 30.8415H5.83341C5.03133 30.8415 4.3447 30.5559 3.77352 29.9847C3.20234 29.4135 2.91675 28.7269 2.91675 27.9248V12.1019C2.91675 11.5915 3.03828 11.1054 3.28133 10.6436C3.52439 10.1817 3.86466 9.81717 4.30216 9.5498L17.5001 1.6748ZM17.5001 18.6644L28.8751 11.8831L17.5001 5.10189L6.12508 11.8831L17.5001 18.6644Z" fill="#1C1B1F"/>
</g>
</svg>
