<svg width="35" height="35" viewBox="0 0 35 35" fill="none" xmlns="http://www.w3.org/2000/svg">
<mask id="mask0_4140_703" style="mask-type:alpha" maskUnits="userSpaceOnUse" x="0" y="0" width="35" height="35">
<rect width="35" height="35" fill="#D9D9D9"/>
</mask>
<g mask="url(#mask0_4140_703)">
<path d="M17.5001 1.45825L30.698 9.33325C31.1355 9.60061 31.4758 9.9652 31.7188 10.427C31.9619 10.8888 32.0834 11.3749 32.0834 11.8853V27.7083C32.0834 28.5103 31.7978 29.197 31.2266 29.7681C30.6555 30.3393 29.9688 30.6249 29.1667 30.6249H5.83341C5.03133 30.6249 4.3447 30.3393 3.77352 29.7681C3.20234 29.197 2.91675 28.5103 2.91675 27.7083V11.8853C2.91675 11.3749 3.03828 10.8888 3.28133 10.427C3.52439 9.9652 3.86466 9.60061 4.30216 9.33325L17.5001 1.45825ZM17.5001 18.4478L28.8751 11.6666L17.5001 4.88534L6.12508 11.6666L17.5001 18.4478Z" fill="#1C1B1F"/>
</g>
</svg>
