<svg width="25" height="24" viewBox="0 0 25 24" fill="none" xmlns="http://www.w3.org/2000/svg">
<mask id="mask0_7524_357" style="mask-type:alpha" maskUnits="userSpaceOnUse" x="0" y="0" width="25" height="24">
<rect x="0.666504" width="24" height="24" fill="#D9D9D9"/>
</mask>
<g mask="url(#mask0_7524_357)">
<path d="M16.1665 11C16.5832 11 16.9373 10.8542 17.229 10.5625C17.5207 10.2708 17.6665 9.91667 17.6665 9.5C17.6665 9.08333 17.5207 8.72917 17.229 8.4375C16.9373 8.14583 16.5832 8 16.1665 8C15.7498 8 15.3957 8.14583 15.104 8.4375C14.8123 8.72917 14.6665 9.08333 14.6665 9.5C14.6665 9.91667 14.8123 10.2708 15.104 10.5625C15.3957 10.8542 15.7498 11 16.1665 11ZM9.1665 11C9.58317 11 9.93734 10.8542 10.229 10.5625C10.5207 10.2708 10.6665 9.91667 10.6665 9.5C10.6665 9.08333 10.5207 8.72917 10.229 8.4375C9.93734 8.14583 9.58317 8 9.1665 8C8.74984 8 8.39567 8.14583 8.104 8.4375C7.81234 8.72917 7.6665 9.08333 7.6665 9.5C7.6665 9.91667 7.81234 10.2708 8.104 10.5625C8.39567 10.8542 8.74984 11 9.1665 11ZM12.6665 17.5C13.7998 17.5 14.829 17.1792 15.754 16.5375C16.679 15.8958 17.3498 15.05 17.7665 14H16.1165C15.7498 14.6167 15.2623 15.1042 14.654 15.4625C14.0457 15.8208 13.3832 16 12.6665 16C11.9498 16 11.2873 15.8208 10.679 15.4625C10.0707 15.1042 9.58317 14.6167 9.2165 14H7.5665C7.98317 15.05 8.654 15.8958 9.579 16.5375C10.504 17.1792 11.5332 17.5 12.6665 17.5ZM12.6665 22C11.2832 22 9.98317 21.7375 8.7665 21.2125C7.54984 20.6875 6.4915 19.975 5.5915 19.075C4.6915 18.175 3.979 17.1167 3.454 15.9C2.929 14.6833 2.6665 13.3833 2.6665 12C2.6665 10.6167 2.929 9.31667 3.454 8.1C3.979 6.88333 4.6915 5.825 5.5915 4.925C6.4915 4.025 7.54984 3.3125 8.7665 2.7875C9.98317 2.2625 11.2832 2 12.6665 2C14.0498 2 15.3498 2.2625 16.5665 2.7875C17.7832 3.3125 18.8415 4.025 19.7415 4.925C20.6415 5.825 21.354 6.88333 21.879 8.1C22.404 9.31667 22.6665 10.6167 22.6665 12C22.6665 13.3833 22.404 14.6833 21.879 15.9C21.354 17.1167 20.6415 18.175 19.7415 19.075C18.8415 19.975 17.7832 20.6875 16.5665 21.2125C15.3498 21.7375 14.0498 22 12.6665 22Z" fill="#1EBEA4"/>
</g>
</svg>
