<svg width="25" height="24" viewBox="0 0 25 24" fill="none" xmlns="http://www.w3.org/2000/svg">
<mask id="mask0_7524_356" style="mask-type:alpha" maskUnits="userSpaceOnUse" x="0" y="0" width="25" height="24">
<rect x="0.444336" width="24" height="24" fill="#D9D9D9"/>
</mask>
<g mask="url(#mask0_7524_356)">
<path d="M19.3443 21.0001L13.8693 15.5251L15.9693 13.4251L21.4443 18.9001L19.3443 21.0001ZM5.54434 21.0001L3.44434 18.9001L10.3443 12.0001L8.64434 10.3001L7.94434 11.0001L6.66934 9.7251V11.7751L5.96934 12.4751L2.94434 9.4501L3.64434 8.7501H5.69434L4.44434 7.5001L7.99434 3.9501C8.32767 3.61676 8.686 3.3751 9.06934 3.2251C9.45267 3.0751 9.84434 3.0001 10.2443 3.0001C10.6443 3.0001 11.036 3.0751 11.4193 3.2251C11.8027 3.3751 12.161 3.61676 12.4943 3.9501L10.1943 6.2501L11.4443 7.5001L10.7443 8.2001L12.4443 9.9001L14.6943 7.6501C14.6277 7.46676 14.5735 7.2751 14.5318 7.0751C14.4902 6.8751 14.4693 6.6751 14.4693 6.4751C14.4693 5.49176 14.8068 4.6626 15.4818 3.9876C16.1568 3.3126 16.986 2.9751 17.9693 2.9751C18.2193 2.9751 18.4568 3.0001 18.6818 3.0501C18.9068 3.1001 19.136 3.1751 19.3693 3.2751L16.8943 5.7501L18.6943 7.5501L21.1693 5.0751C21.286 5.30843 21.3652 5.5376 21.4068 5.7626C21.4485 5.9876 21.4693 6.2251 21.4693 6.4751C21.4693 7.45843 21.1318 8.2876 20.4568 8.9626C19.7818 9.6376 18.9527 9.9751 17.9693 9.9751C17.7693 9.9751 17.5693 9.95843 17.3693 9.9251C17.1693 9.89176 16.9777 9.83343 16.7943 9.7501L5.54434 21.0001Z" fill="black"/>
</g>
</svg>
