<svg width="36" height="36" viewBox="0 0 36 36" fill="none" xmlns="http://www.w3.org/2000/svg">
<mask id="mask0_7510_19" style="mask-type:alpha" maskUnits="userSpaceOnUse" x="0" y="0" width="36" height="36">
<rect x="0.216309" y="0.5" width="35" height="35" fill="#D9D9D9"/>
</mask>
<g mask="url(#mask0_7510_19)">
<path d="M6.04972 29.6667C5.24764 29.6667 4.56101 29.3811 3.98983 28.8099C3.41865 28.2388 3.13306 27.5521 3.13306 26.75V9.25004C3.13306 8.44796 3.41865 7.76133 3.98983 7.19014C4.56101 6.61896 5.24764 6.33337 6.04972 6.33337H29.3831C30.1851 6.33337 30.8718 6.61896 31.443 7.19014C32.0141 7.76133 32.2997 8.44796 32.2997 9.25004V26.75C32.2997 27.5521 32.0141 28.2388 31.443 28.8099C30.8718 29.3811 30.1851 29.6667 29.3831 29.6667H6.04972ZM17.7164 19.4584L29.3831 12.1667V9.25004L17.7164 16.5417L6.04972 9.25004V12.1667L17.7164 19.4584Z" fill="#1C1B1F"/>
</g>
</svg>
