<svg width="35" height="35" viewBox="0 0 35 35" fill="none" xmlns="http://www.w3.org/2000/svg">
<mask id="mask0_4116_917" style="mask-type:alpha" maskUnits="userSpaceOnUse" x="0" y="0" width="35" height="35">
<rect width="35" height="35" fill="#D9D9D9"/>
</mask>
<g mask="url(#mask0_4116_917)">
<path d="M5.83317 29.1666C5.03109 29.1666 4.34446 28.881 3.77327 28.3098C3.20209 27.7386 2.9165 27.052 2.9165 26.2499V8.74992C2.9165 7.94784 3.20209 7.2612 3.77327 6.69002C4.34446 6.11884 5.03109 5.83325 5.83317 5.83325H29.1665C29.9686 5.83325 30.6552 6.11884 31.2264 6.69002C31.7976 7.2612 32.0832 7.94784 32.0832 8.74992V26.2499C32.0832 27.052 31.7976 27.7386 31.2264 28.3098C30.6552 28.881 29.9686 29.1666 29.1665 29.1666H5.83317ZM17.4998 18.9583L29.1665 11.6666V8.74992L17.4998 16.0416L5.83317 8.74992V11.6666L17.4998 18.9583Z" fill="#1C1B1F"/>
</g>
</svg>
