<svg width="21" height="21" viewBox="0 0 21 21" fill="none" xmlns="http://www.w3.org/2000/svg">
<g clip-path="url(#clip0_7502_52)">
<path d="M10.8807 2.42853C9.78635 2.42853 8.70271 2.64408 7.69167 3.06287C6.68062 3.48165 5.76196 4.09548 4.98814 4.8693C3.42534 6.43211 2.54736 8.55172 2.54736 10.7619C2.54736 12.972 3.42534 15.0916 4.98814 16.6544C5.76196 17.4282 6.68062 18.0421 7.69167 18.4609C8.70271 18.8796 9.78635 19.0952 10.8807 19.0952C13.0908 19.0952 15.2104 18.2172 16.7733 16.6544C18.3361 15.0916 19.214 12.972 19.214 10.7619C19.214 9.66751 18.9985 8.58388 18.5797 7.57283C18.1609 6.56179 17.5471 5.64313 16.7733 4.8693C15.9994 4.09548 15.0808 3.48165 14.0697 3.06287C13.0587 2.64408 11.975 2.42853 10.8807 2.42853ZM10.8807 4.09519C12.6488 4.09519 14.3445 4.79757 15.5947 6.04782C16.845 7.29806 17.5474 8.99375 17.5474 10.7619C17.5474 12.7619 16.714 14.5119 15.2974 15.7619C14.1307 14.6785 12.5474 14.0952 10.8807 14.0952C9.21403 14.0952 7.71403 14.6785 6.46403 15.7619C5.04736 14.5119 4.21403 12.7619 4.21403 10.7619C4.21403 8.99375 4.91641 7.29806 6.16665 6.04782C7.41689 4.79757 9.11259 4.09519 10.8807 4.09519ZM12.5474 5.67019C12.2307 5.67853 11.9307 5.88686 11.7974 6.21186L10.7224 8.90353L10.639 9.09519C10.0474 9.20353 9.5557 9.59519 9.3307 10.1452C8.98903 11.0035 9.4057 11.9702 10.264 12.3119C11.1224 12.6535 12.089 12.2369 12.4307 11.3785C12.6474 10.8285 12.5474 10.1952 12.189 9.72853L12.2724 9.51186L13.3474 6.83686L13.3557 6.81186C13.5224 6.38686 13.314 5.90353 12.889 5.72853C12.7807 5.68686 12.6724 5.67019 12.5474 5.67019ZM9.21403 5.76186C8.99302 5.76186 8.78105 5.84966 8.62477 6.00594C8.46849 6.16222 8.3807 6.37418 8.3807 6.59519C8.3807 6.81621 8.46849 7.02817 8.62477 7.18445C8.78105 7.34073 8.99302 7.42853 9.21403 7.42853C9.43504 7.42853 9.647 7.34073 9.80329 7.18445C9.95957 7.02817 10.0474 6.81621 10.0474 6.59519C10.0474 6.37418 9.95957 6.16222 9.80329 6.00594C9.647 5.84966 9.43504 5.76186 9.21403 5.76186ZM6.71403 8.26186C6.49302 8.26186 6.28105 8.34966 6.12477 8.50594C5.96849 8.66222 5.8807 8.87418 5.8807 9.09519C5.8807 9.31621 5.96849 9.52817 6.12477 9.68445C6.28105 9.84073 6.49302 9.92853 6.71403 9.92853C6.93504 9.92853 7.14701 9.84073 7.30329 9.68445C7.45957 9.52817 7.54736 9.31621 7.54736 9.09519C7.54736 8.87418 7.45957 8.66222 7.30329 8.50594C7.14701 8.34966 6.93504 8.26186 6.71403 8.26186ZM15.0474 8.26186C14.8263 8.26186 14.6144 8.34966 14.4581 8.50594C14.3018 8.66222 14.214 8.87418 14.214 9.09519C14.214 9.31621 14.3018 9.52817 14.4581 9.68445C14.6144 9.84073 14.8263 9.92853 15.0474 9.92853C15.2684 9.92853 15.4803 9.84073 15.6366 9.68445C15.7929 9.52817 15.8807 9.31621 15.8807 9.09519C15.8807 8.87418 15.7929 8.66222 15.6366 8.50594C15.4803 8.34966 15.2684 8.26186 15.0474 8.26186Z" fill="#CCCCCC"/>
</g>
<defs>
<clipPath id="clip0_7502_52">
<rect width="20" height="20" fill="white" transform="translate(0.880615 0.761353)"/>
</clipPath>
</defs>
</svg>
