<svg width="24" height="24" viewBox="0 0 24 24" fill="none" xmlns="http://www.w3.org/2000/svg">
<path d="M10.6667 20H13.3333V17.3333H10.6667V20ZM12 4C9.06667 4 6.66667 6.4 6.66667 9.33333H9.33333C9.33333 7.86667 10.5333 6.66667 12 6.66667C13.4667 6.66667 14.6667 7.86667 14.6667 9.33333C14.6667 12 10.6667 11.7333 10.6667 16H13.3333C13.3333 13.0667 17.3333 12.6667 17.3333 9.33333C17.3333 6.4 14.9333 4 12 4ZM21.3333 2.66667V21.3333H2.66667V2.66667H21.3333ZM21.3333 0H2.66667C1.2 0 0 1.2 0 2.66667V21.3333C0 22.8 1.2 24 2.66667 24H21.3333C22.8 24 24 22.8 24 21.3333V2.66667C24 1.2 22.8 0 21.3333 0Z" fill="#808080"/>
</svg>
