<svg width="21" height="21" viewBox="0 0 21 21" fill="none" xmlns="http://www.w3.org/2000/svg">
<g clip-path="url(#clip0_7502_62)">
<g clip-path="url(#clip1_7502_62)">
<g clip-path="url(#clip2_7502_62)">
<path d="M8.691 18.3813H12.0243C12.0243 19.298 11.2743 20.048 10.3577 20.048C9.441 20.048 8.691 19.298 8.691 18.3813ZM17.8577 16.7146V17.548H2.85767V16.7146L4.52433 15.048V10.048C4.52433 7.46464 6.191 5.21464 8.691 4.46464V4.21464C8.691 3.29797 9.441 2.54797 10.3577 2.54797C11.2743 2.54797 12.0243 3.29797 12.0243 4.21464V4.46464C14.5243 5.21464 16.191 7.46464 16.191 10.048V15.048L17.8577 16.7146ZM14.5243 10.048C14.5243 7.71464 12.691 5.88131 10.3577 5.88131C8.02433 5.88131 6.191 7.71464 6.191 10.048V15.8813H14.5243V10.048Z" fill="#CCCCCC"/>
</g>
</g>
</g>
<defs>
<clipPath id="clip0_7502_62">
<rect width="20" height="20" fill="white" transform="translate(0.148926 0.880676)"/>
</clipPath>
<clipPath id="clip1_7502_62">
<rect width="20" height="20" fill="white" transform="translate(0.148926 0.880798)"/>
</clipPath>
<clipPath id="clip2_7502_62">
<rect width="20" height="20" fill="white" transform="translate(0.357666 0.880737)"/>
</clipPath>
</defs>
</svg>
