<svg width="21" height="21" viewBox="0 0 21 21" fill="none" xmlns="http://www.w3.org/2000/svg">
<g clip-path="url(#clip0_7502_56)">
<g clip-path="url(#clip1_7502_56)">
<path d="M7.97624 3.3811C9.41283 3.3811 10.7906 3.95179 11.8064 4.96761C12.8222 5.98343 13.3929 7.36118 13.3929 8.79777C13.3929 10.1394 12.9012 11.3728 12.0929 12.3228L12.3179 12.5478H12.9762L17.1429 16.7144L15.8929 17.9644L11.7262 13.7978V13.1394L11.5012 12.9144C10.5512 13.7228 9.3179 14.2144 7.97624 14.2144C6.53965 14.2144 5.1619 13.6438 4.14608 12.6279C3.13025 11.6121 2.55957 10.2344 2.55957 8.79777C2.55957 7.36118 3.13025 5.98343 4.14608 4.96761C5.1619 3.95179 6.53965 3.3811 7.97624 3.3811ZM7.97624 5.04777C5.8929 5.04777 4.22624 6.71444 4.22624 8.79777C4.22624 10.8811 5.8929 12.5478 7.97624 12.5478C10.0596 12.5478 11.7262 10.8811 11.7262 8.79777C11.7262 6.71444 10.0596 5.04777 7.97624 5.04777Z" fill="#CCCCCC"/>
</g>
</g>
<defs>
<clipPath id="clip0_7502_56">
<rect width="20" height="20" fill="white" transform="translate(0.268555 0.880676)"/>
</clipPath>
<clipPath id="clip1_7502_56">
<rect width="20" height="20" fill="white" transform="translate(0.268066 0.880615)"/>
</clipPath>
</defs>
</svg>
